<svg width="46" height="45" fill="none" xmlns="http://www.w3.org/2000/svg"><path d="M21.02 33.558l-6.895-2.249-2.02-.01-3.537 9.937a.46.46 0 00.49.605l4.957-.508a.474.474 0 01.375.128l3.563 3.408c.245.235.656.14.769-.176L22.28 34.69l-1.26-1.132z" fill="#0083FD"/><path d="M22.28 34.69l.72-2.02-10.179-3.387-.716 2.015A18.955 18.955 0 0022.28 34.69z" fill="#0072FC"/><path d="M24.978 33.558l6.896-2.249 2.02-.01 3.537 9.937a.46.46 0 01-.49.605l-4.957-.508a.474.474 0 00-.375.128l-3.563 3.409a.472.472 0 01-.768-.177l-3.56-10.002 1.26-1.133z" fill="#0083FD"/><path d="M23.72 34.69L23 32.67l10.178-3.387.717 2.015A18.954 18.954 0 0123.72 34.69z" fill="#0072FC"/><path d="M23 31.298c-16.676 0-16.69-15.514-16.676-15.787C6.762 6.873 14.061 0 23.001 0s16.238 6.873 16.677 15.511c.013.273 0 15.787-16.677 15.787z" fill="#FF9838"/><path d="M23 31.023c-8.94 0-16.239-6.872-16.677-15.511-.014.272-.021.547-.021.823 0 9.021 7.476 16.335 16.697 16.335 9.222 0 16.698-7.314 16.698-16.335 0-.276-.007-.55-.021-.823-.438 8.639-7.737 15.511-16.677 15.511z" fill="#FF8709"/><path fill-rule="evenodd" clip-rule="evenodd" d="M36.307 16.026c-.11 7.013-5.957 12.666-13.153 12.666-7.208 0-13.063-5.673-13.153-12.704l-.001-.12v-.045a12.755 12.755 0 01.028-.809C10.478 8.305 16.183 3 23.154 3c6.972 0 12.677 5.306 13.126 12.014V15c.018.272.028.547.028.823v.045l-.001.158z" fill="#BC672E"/></svg>