<svg width="45" height="52" fill="none" xmlns="http://www.w3.org/2000/svg"><path d="M13.624 36.211l-1.784.087-3.459 9.938c-.11.316.147.64.48.605l4.848-.508a.458.458 0 01.368.128l3.485 3.409c.24.234.642.14.752-.177l3.481-10.002-1.026-.997-7.145-2.483z" fill="#98DB7C"/><path d="M20.955 42.146l.704-2.02-9.958-3.387L11 38.754a18.276 18.276 0 009.955 3.392z" fill="#7AB064"/><path d="M31.374 36.211l1.784.087 3.459 9.938a.457.457 0 01-.48.605l-4.848-.508a.457.457 0 00-.367.128l-3.486 3.409a.457.457 0 01-.751-.177l-3.482-10.002 1.027-.997 7.144-2.483z" fill="#98DB7C"/><path d="M24 42l-.703-2.021 9.957-3.386.701 2.015A18.276 18.276 0 0124 42z" fill="#7AB064"/><g clip-path="url(#clip0)" fill="#358A27"><path d="M20.173 8.39l-.325-.111a18.87 18.87 0 00-1.91-.547c.208-1.624.836-3.446 2.785-3.695.192-.025.386-.037.58-.037 2.953 0 7.451 2.787 9.984 7.973 1.185 2.42 1.885 4.045 2.353 5.13l.041.097c.248.653.55 1.286.905 1.893.104.16.218.313.342.46-.116.486-.261.966-.433 1.437-.112.315-.225.613-.333.899a5.995 5.995 0 01-1.477-1.578 13.596 13.596 0 01-1.104-2.258l-.01-.022a104.16 104.16 0 00-2.336-5.105c-2.022-4.134-5.68-6.69-7.915-6.69a2.058 2.058 0 00-.282 0c-.346.042-.731.498-.865 2.154z"/><path d="M9.106 14.25l-.312.145-.052-.004c-.594.277-1.173.585-1.732.923-1.052-1.325-1.93-3.04-.731-4.556 1.286-1.627 4.143-2.634 7.46-2.634 1.967.007 3.918.34 5.767.982a124.8 124.8 0 015.498 2.07c.652.29 1.327.529 2.018.717.196.04.394.068.593.087.267.423.511.858.732 1.305.16.31.303.596.433.874a4.606 4.606 0 01-.75.066 7.4 7.4 0 01-1.458-.162 14.597 14.597 0 01-2.425-.828l-.031-.012c-1.1-.44-2.76-1.102-5.364-2a15.47 15.47 0 00-4.974-.858c-2.94 0-4.958.886-5.65 1.764-.204.261-.152.837.978 2.12zm23.151-2.402l-.135-.286v.004a17.514 17.514 0 00-.96-1.706c.87-.667 1.904-1.243 2.97-1.243a2.764 2.764 0 011.675.551c2.429 1.827 3.762 7.232 1.697 12.865a105.957 105.957 0 01-2.108 5.334c-.302.635-.55 1.291-.74 1.964l-.013.06-.011.05a2.273 2.273 0 00-.068.457 14.76 14.76 0 01-1.342.704l-.905.414c-.1-.714-.065-1.44.104-2.141.217-.808.506-1.597.866-2.357l.172-.412.001-.003c.45-1.074 1.078-2.578 1.9-4.82 1.785-4.887.577-9.224-.943-10.355a.446.446 0 00-.286-.09c-.524 0-1.247.492-1.874 1.01zm2.753 22.386l-.312.141c1.13 1.288 1.182 1.864.979 2.12-.693.879-2.71 1.77-5.629 1.77a15.51 15.51 0 01-5-.858 102.714 102.714 0 01-5.43-2.013 14.21 14.21 0 00-2.429-.828 7.08 7.08 0 00-1.407-.153 4.63 4.63 0 00-.797.07l.433.861c.221.445.467.878.736 1.297.195.017.39.046.58.087.693.183 1.368.423 2.018.716l.058.023c1.122.448 2.807 1.12 5.44 2.048 1.849.634 3.796.96 5.76.965 2.879 0 6.178-1.01 7.464-2.634 1.199-1.52.32-3.235-.732-4.556a19.17 19.17 0 01-1.732.928v.016zm-23.501 2.494l.16.335-.017.013c.288.552.603 1.104.943 1.657-.9.741-1.805 1.325-2.874 1.325a2.86 2.86 0 01-1.732-.609c-2.425-1.793-3.763-7.22-1.706-12.84a99.751 99.751 0 012.113-5.338c.302-.633.548-1.288.736-1.96.047-.207.073-.393.095-.563.432-.26.88-.498 1.338-.712l.905-.414c.1.71.067 1.43-.1 2.128a13.623 13.623 0 01-.866 2.353l-.055.132a108.568 108.568 0 00-2.014 5.108c-1.784 4.887-.576 9.223.94 10.354a.58.58 0 00.363.15c.424 0 1.108-.543 1.77-1.12z"/><path d="M5.487 26.086l.042-.115c-1.732-.103-2.164-.273-2.23-.779-.25-1.855 2.031-5.753 6.863-7.985a106.276 106.276 0 015.282-2.278c.806-.29 1.583-.649 2.321-1.073a6.005 6.005 0 001.641-1.454l-.953-.335c-.472-.162-.953-.3-1.441-.414a6.24 6.24 0 01-.498.348c-.623.344-1.275.64-1.949.882-1.121.451-2.81 1.139-5.381 2.324C3.637 17.773.637 22.529 1.035 25.49c.282 2.07 2.13 2.485 3.815 2.646.151-.617.333-1.242.55-1.83v.012c.031-.08.06-.156.087-.233zm37.269-2.926c-.255-1.898-2.113-2.51-3.801-2.71-.152.634-.34 1.259-.563 1.872l-.113.299c1.732.132 2.165.505 2.217.828.247 1.843-2.052 5.74-6.867 7.96a109.382 109.382 0 01-5.163 2.236l-.115.047c-.808.288-1.586.647-2.325 1.072a5.91 5.91 0 00-1.645 1.454l.952.336c.473.161.955.3 1.442.414.16-.126.325-.244.498-.352a13.51 13.51 0 011.948-.878l.098-.04c1.121-.455 2.79-1.133 5.28-2.284 5.555-2.539 8.555-7.318 8.157-10.255zM23.624 40.24l.324.112c.62.213 1.25.395 1.888.546-.186 1.62-.836 3.442-2.784 3.69a4.328 4.328 0 01-.58.042c-2.931-.004-7.43-2.791-9.958-7.956a88.26 88.26 0 01-2.373-5.227 13.018 13.018 0 00-.905-1.893 5.766 5.766 0 00-.338-.452c.117-.489.261-.971.433-1.445.069-.189.137-.371.204-.549l.125-.338a5.799 5.799 0 011.468 1.566c.437.72.805 1.475 1.1 2.258l.112.257a112.409 112.409 0 002.226 4.854c2.018 4.129 5.676 6.689 7.91 6.689.094.004.188.004.282 0 .346-.042.727-.497.866-2.154z"/></g><path d="M22.335 39.65c-16.334 0-16.327-15.866-16.314-16.139C6.451 14.873 13.591 8 22.335 8c8.746 0 15.886 6.873 16.315 15.511.013.273.02 16.14-16.314 16.14z" fill="#7AFFBF"/><path d="M22.335 39.023c-8.746 0-15.886-6.873-16.314-15.512-.014.273-.021.547-.021.823 0 9.022 7.313 16.335 16.335 16.335 9.021 0 16.334-7.313 16.334-16.334 0-.277-.007-.551-.02-.824-.43 8.64-7.57 15.512-16.314 15.512z" fill="#58F972"/><path fill-rule="evenodd" clip-rule="evenodd" d="M35.172 23.575l.004-.064c.017.273.027.547.027.823 0 7.107-5.761 12.869-12.868 12.869S9.467 31.44 9.467 24.334c0-.276.01-.55.027-.823l.002.039a4.66 4.66 0 01-.004-.314c.425-6.724 6.012-12.045 12.843-12.045 6.83 0 12.417 5.321 12.842 12.045a4.97 4.97 0 01-.005.34z" fill="#3EFF68"/><defs><clipPath id="clip0"><path fill="#fff" transform="translate(1 4)" d="M0 0h42v42H0z"/></clipPath></defs></svg>