<svg width="33" height="45" fill="none" xmlns="http://www.w3.org/2000/svg"><path d="M14.695 33.644l-7.253-2.509-1.6.163-3.46 9.938c-.11.316.147.64.48.605l4.848-.508a.457.457 0 01.368.128l3.485 3.409c.24.234.642.14.752-.177l3.481-10.003-1.1-1.046z" fill="#98DB7C"/><path d="M15.796 34.69l.703-2.02-9.957-3.387-.701 2.015a18.276 18.276 0 009.955 3.392z" fill="#82D361"/><path d="M18.304 33.644l7.254-2.509 1.6.163 3.459 9.938a.457.457 0 01-.48.605l-4.848-.508a.457.457 0 00-.367.128l-3.486 3.409a.457.457 0 01-.751-.177L17.203 34.69l1.101-1.046z" fill="#98DB7C"/><path d="M17.203 34.69l-.703-2.02 9.957-3.387.701 2.015a18.276 18.276 0 01-9.955 3.392z" fill="#82D361"/><path d="M16.5 31.591C.186 31.591.173 15.784.186 15.511.616 6.873 7.756 0 16.5 0c8.74 0 15.877 6.863 16.314 15.494.014.279 0 16.097-16.314 16.097z" fill="#E0E0E0"/><path d="M16.5 31.023C7.754 31.023.615 24.15.186 15.51c-.014.273-.021.547-.021.823 0 9.022 7.313 16.335 16.335 16.335 9.021 0 16.334-7.313 16.334-16.334 0-.277-.007-.551-.02-.824-.43 8.64-7.569 15.512-16.314 15.512z" fill="#CECECE"/><path fill-rule="evenodd" clip-rule="evenodd" d="M29.343 15.557c.016.258.024.517.024.778 0 7.107-5.761 12.868-12.868 12.868S3.631 23.442 3.631 16.335a13.002 13.002 0 01.026-.824C4.082 8.788 9.67 3.466 16.5 3.466s12.418 5.322 12.842 12.045l.001.046z" fill="#898989"/></svg>