<svg width="33" height="45" fill="none" xmlns="http://www.w3.org/2000/svg"><path d="M7.624 31.211l-1.784.087-3.459 9.938c-.11.316.147.64.48.605l4.848-.508a.458.458 0 01.368.128l3.485 3.409c.24.234.642.14.752-.177l3.481-10.002-1.026-.997-7.145-2.483z" fill="#FF4755"/><path d="M15.796 34.69l.703-2.021-9.957-3.386-.701 2.015a18.276 18.276 0 009.955 3.392z" fill="#FC2B3A"/><path d="M25.374 31.211l1.784.087 3.459 9.938a.457.457 0 01-.48.605l-4.848-.508a.457.457 0 00-.367.128l-3.486 3.409a.457.457 0 01-.751-.177l-3.482-10.002 1.027-.997 7.144-2.483z" fill="#FF4755"/><path d="M17.203 34.69l-.703-2.021 9.957-3.386.701 2.015a18.276 18.276 0 01-9.955 3.392z" fill="#FC2B3A"/><path d="M16.5 31.65C.167 31.65.174 15.785.187 15.512.616 6.873 7.756 0 16.501 0c8.745 0 15.885 6.873 16.314 15.511.013.273.02 16.14-16.314 16.14z" fill="#FFE27A"/><path d="M16.5 31.023C7.754 31.023.615 24.15.186 15.51c-.014.273-.021.547-.021.823 0 9.022 7.313 16.335 16.335 16.335 9.021 0 16.334-7.313 16.334-16.334 0-.277-.007-.551-.02-.824-.43 8.64-7.569 15.512-16.314 15.512z" fill="#F9CF58"/><path d="M16.5 28.136c-12.843 0-12.86-12.628-12.843-12.9C4.082 8.513 9.67 3.19 16.5 3.19s12.417 5.322 12.842 12.045c.017.272 0 12.9-12.842 12.9z" fill="#FFBA57"/><path d="M16.5 27.556c-6.83 0-12.417-5.322-12.841-12.045a13.03 13.03 0 00-.027.823c0 7.107 5.761 12.869 12.868 12.869s12.868-5.762 12.868-12.869c0-.276-.01-.55-.027-.823-.424 6.723-6.01 12.045-12.84 12.045z" fill="#FFAC3E"/></svg>