<svg width="212" height="202" viewBox="0 0 212 202" fill="none" xmlns="http://www.w3.org/2000/svg">
<path d="M183.783 141.633L205.9 149.971L139.124 200.956L1 72.7357L88.5672 105.743" stroke="#05B8B1" stroke-opacity="0.2" stroke-width="2" stroke-miterlimit="10" stroke-linejoin="round"/>
<path d="M109.085 118.647L93.3555 73.5251L147.609 71.4489L109.085 118.647Z" stroke="#05B8B1" stroke-opacity="0.2" stroke-width="6" stroke-miterlimit="10" stroke-linejoin="round"/>
<path d="M147.609 71.4487L149.729 52.0067L93.3555 73.5249L147.609 71.4487Z" stroke="#05B8B1" stroke-opacity="0.2" stroke-width="6" stroke-miterlimit="10" stroke-linejoin="round"/>
<path d="M149.73 52.007L200.095 81.9839L147.61 71.449L149.73 52.007Z" stroke="#05B8B1" stroke-opacity="0.2" stroke-width="6" stroke-miterlimit="10" stroke-linejoin="round"/>
<path d="M147.61 71.449L176.676 123.907L200.095 81.9839L147.61 71.449Z" stroke="#05B8B1" stroke-opacity="0.2" stroke-width="6" stroke-miterlimit="10" stroke-linejoin="round"/>
<path d="M176.675 123.906L193.131 138.994L200.095 81.9836L176.675 123.906Z" stroke="#05B8B1" stroke-opacity="0.2" stroke-width="6" stroke-miterlimit="10" stroke-linejoin="round"/>
<path d="M176.675 123.906L134.822 159.361L193.132 138.994L176.675 123.906Z" stroke="#05B8B1" stroke-opacity="0.2" stroke-width="6" stroke-miterlimit="10" stroke-linejoin="round"/>
<path d="M109.085 118.647L134.822 159.361L176.675 123.906L109.085 118.647Z" stroke="#05B8B1" stroke-opacity="0.2" stroke-width="6" stroke-miterlimit="10" stroke-linejoin="round"/>
<path d="M93.356 73.5249L85.4199 126.914L109.085 118.647L93.356 73.5249Z" stroke="#05B8B1" stroke-opacity="0.2" stroke-width="6" stroke-miterlimit="10" stroke-linejoin="round"/>
<path d="M85.4199 126.914L134.822 159.361L109.085 118.647L85.4199 126.914Z" stroke="#05B8B1" stroke-opacity="0.2" stroke-width="6" stroke-miterlimit="10" stroke-linejoin="round"/>
<path d="M210.916 0.99985L139.124 200.956L1 72.7357L210.916 0.99985Z" stroke="#05B8B1" stroke-opacity="0.2" stroke-width="2" stroke-miterlimit="10" stroke-linejoin="round"/>
<path d="M210.915 0.99985L205.9 149.971L139.123 200.956L210.915 0.99985Z" stroke="#05B8B1" stroke-opacity="0.2" stroke-width="2" stroke-miterlimit="10" stroke-linejoin="round"/>
</svg>
