<svg width="172" height="188" viewBox="0 0 172 188" fill="none" xmlns="http://www.w3.org/2000/svg">
<path d="M152.522 162.511L117.535 181.292L77.7754 184.822L86.1444 150.976L129.222 128.848L168.258 137.73L152.522 162.511Z" stroke="#9559A4" stroke-opacity="0.2" stroke-width="6" stroke-miterlimit="10" stroke-linejoin="round"/>
<path d="M55.3555 59.9801L129.222 128.848L86.1444 150.976L55.3555 59.9801Z" stroke="#9559A4" stroke-opacity="0.2" stroke-width="6" stroke-miterlimit="10" stroke-linejoin="round"/>
<path d="M55.3555 59.98L77.7753 184.822L86.1444 150.976L55.3555 59.98Z" stroke="#9559A4" stroke-opacity="0.2" stroke-width="6" stroke-miterlimit="10" stroke-linejoin="round"/>
<path d="M168.254 137.73L55.3555 59.9801L129.222 128.848L168.254 137.73Z" stroke="#9559A4" stroke-opacity="0.2" stroke-width="6" stroke-miterlimit="10" stroke-linejoin="round"/>
<path d="M117.535 181.292L55.3555 59.98L77.7753 184.822L117.535 181.292Z" stroke="#9559A4" stroke-opacity="0.2" stroke-width="2" stroke-miterlimit="10" stroke-linejoin="round"/>
<path d="M152.522 162.511L55.3555 59.9801L117.535 181.292L152.522 162.511Z" stroke="#9559A4" stroke-opacity="0.2" stroke-width="2" stroke-miterlimit="10" stroke-linejoin="round"/>
<path d="M12.8 11.5215L27.1292 4.68014L46.0386 3.00018L42.0587 19.099L21.5663 29.6245L3 25.4004L12.8 11.5215Z" stroke="#9559A4" stroke-opacity="0.2" stroke-width="2" stroke-miterlimit="10" stroke-linejoin="round"/>
<path d="M56.7039 62.3828L21.5664 29.6243L42.0587 19.0988L56.7039 62.3828Z" stroke="#9559A4" stroke-opacity="0.2" stroke-width="2" stroke-miterlimit="10" stroke-linejoin="round"/>
<path d="M56.7037 62.3828L46.0385 2.99994L42.0586 19.0988L56.7037 62.3828Z" stroke="#9559A4" stroke-opacity="0.2" stroke-width="2" stroke-miterlimit="10" stroke-linejoin="round"/>
<path d="M3 25.4001L56.7037 62.3828L21.5663 29.6242L3 25.4001Z" stroke="#9559A4" stroke-opacity="0.2" stroke-width="2" stroke-miterlimit="10" stroke-linejoin="round"/>
<path d="M27.1289 4.67989L56.7035 62.3828L46.0383 2.99994L27.1289 4.67989Z" stroke="#9559A4" stroke-opacity="0.2" stroke-width="2" stroke-miterlimit="10" stroke-linejoin="round"/>
<path d="M12.7998 11.5213L56.7035 62.3828L27.1289 4.67993L12.7998 11.5213Z" stroke="#9559A4" stroke-opacity="0.2" stroke-width="6" stroke-miterlimit="10" stroke-linejoin="round"/>
<path d="M56.7037 62.3828L3 25.4002L12.8 11.5213L27.1291 4.67989L46.0385 2.99994L56.7037 62.3828Z" stroke="#9559A4" stroke-opacity="0.2" stroke-width="6" stroke-miterlimit="10" stroke-linejoin="round"/>
</svg>
