<svg width="216" height="186" viewBox="0 0 216 186" fill="none" xmlns="http://www.w3.org/2000/svg">
<path d="M29.1016 112.636L117.096 41.8402L146.053 142.268L29.1016 112.636Z" stroke="#45A2DA" stroke-opacity="0.2" stroke-width="2" stroke-miterlimit="10" stroke-linejoin="round"/>
<path d="M29.2207 112.636L80.6765 182.718L146.172 142.268L29.2207 112.636Z" stroke="#45A2DA" stroke-opacity="0.2" stroke-width="2" stroke-miterlimit="10" stroke-linejoin="round"/>
<path d="M146.055 142.268L182.524 160.616L212.776 69.3459L146.055 142.268Z" stroke="#45A2DA" stroke-opacity="0.2" stroke-width="2" stroke-miterlimit="10" stroke-linejoin="round"/>
<path d="M117.217 41.8402L140.492 2.99975L212.898 69.3457L117.217 41.8402Z" stroke="#45A2DA" stroke-opacity="0.2" stroke-width="2" stroke-miterlimit="10" stroke-linejoin="round"/>
<path d="M33.5391 25.8024L140.492 3L117.217 41.8403L33.5391 25.8024Z" stroke="#45A2DA" stroke-opacity="0.2" stroke-width="2" stroke-miterlimit="10" stroke-linejoin="round"/>
<path d="M3 113.48L29.1011 112.637L33.4195 25.8026L3 113.48Z" stroke="#45A2DA" stroke-opacity="0.2" stroke-width="2" stroke-miterlimit="10" stroke-linejoin="round"/>
<path d="M3 113.48L80.6785 182.718L29.1011 112.636L3 113.48Z" stroke="#45A2DA" stroke-opacity="0.2" stroke-width="2" stroke-miterlimit="10" stroke-linejoin="round"/>
<path d="M80.6787 182.718L182.522 160.616L146.053 142.268L80.6787 182.718Z" stroke="#45A2DA" stroke-opacity="0.2" stroke-width="2" stroke-miterlimit="10" stroke-linejoin="round"/>
<path d="M33.4195 25.8026L64.8023 42.6734L3 113.48L33.4195 25.8026Z" stroke="#45A2DA" stroke-opacity="0.2" stroke-width="6" stroke-miterlimit="10" stroke-linejoin="round"/>
<path d="M64.8027 42.6733L140.493 3L33.4199 25.8025L64.8027 42.6733Z" stroke="#45A2DA" stroke-opacity="0.2" stroke-width="6" stroke-miterlimit="10" stroke-linejoin="round"/>
<path d="M64.8027 42.6732L182.331 70.1414L95.308 143.844L64.8027 42.6732Z" stroke="#45A2DA" stroke-opacity="0.2" stroke-width="6" stroke-miterlimit="10" stroke-linejoin="round"/>
<path d="M95.3078 143.844L182.524 160.616L80.6787 182.718L95.3078 143.844Z" stroke="#45A2DA" stroke-opacity="0.2" stroke-width="6" stroke-miterlimit="10" stroke-linejoin="round"/>
<path d="M182.331 70.1415L212.777 69.3459L182.522 160.616L182.331 70.1415Z" stroke="#45A2DA" stroke-opacity="0.2" stroke-width="6" stroke-miterlimit="10" stroke-linejoin="round"/>
<path d="M140.492 3.00012L182.331 70.1416L212.777 69.346L140.492 3.00012Z" stroke="#45A2DA" stroke-opacity="0.2" stroke-width="6" stroke-miterlimit="10" stroke-linejoin="round"/>
<path d="M3 113.48L95.3076 143.844L80.6785 182.718L3 113.48Z" stroke="#45A2DA" stroke-opacity="0.2" stroke-width="6" stroke-miterlimit="10" stroke-linejoin="round"/>
</svg>
