<svg width="21" height="21" viewBox="0 0 21 21" fill="none" xmlns="http://www.w3.org/2000/svg">
<path d="M21 20.2998H0V20.9998H21V20.2998Z" fill="white"/>
<path d="M1.40078 19.6001H4.90078C5.09407 19.6001 5.25078 19.4434 5.25078 19.2501V12.9501C5.25078 12.7568 5.09407 12.6001 4.90078 12.6001H1.40078C1.20749 12.6001 1.05078 12.7568 1.05078 12.9501V19.2501C1.05078 19.4434 1.20749 19.6001 1.40078 19.6001Z" fill="white"/>
<path d="M11.2006 19.6004H14.7006C14.8939 19.6004 15.0506 19.4437 15.0506 19.2504V8.75039C15.0506 8.5571 14.8939 8.40039 14.7006 8.40039H11.2006C11.0073 8.40039 10.8506 8.5571 10.8506 8.75039V19.2504C10.8506 19.4437 11.0073 19.6004 11.2006 19.6004Z" fill="white"/>
<path d="M6.3002 19.6002H9.8002C9.99348 19.6002 10.1502 19.4435 10.1502 19.2502V4.5502C10.1502 4.35691 9.99348 4.2002 9.8002 4.2002H6.3002C6.10691 4.2002 5.9502 4.35691 5.9502 4.5502V19.2502C5.9502 19.4435 6.10691 19.6002 6.3002 19.6002Z" fill="white"/>
<path d="M16.1 19.6H19.6C19.7933 19.6 19.95 19.4433 19.95 19.25V0.35C19.95 0.156713 19.7933 0 19.6 0H16.1C15.9067 0 15.75 0.156713 15.75 0.35V19.25C15.75 19.4433 15.9067 19.6 16.1 19.6Z" fill="white"/>
</svg>
