<svg width="46" height="45" viewBox="0 0 46 45" fill="none" xmlns="http://www.w3.org/2000/svg">
<path d="M21.0206 33.5578L14.1254 31.3094L12.1041 31.2983L8.5685 41.2357C8.45583 41.5522 8.718 41.8759 9.05878 41.8409L14.0148 41.3332C14.1533 41.3191 14.2909 41.3659 14.3905 41.4611L17.9532 44.8694C18.1981 45.1038 18.6091 45.0093 18.7216 44.6928L22.2805 34.6904L21.0206 33.5578Z" fill="#0083FD"/>
<path d="M22.2807 34.6903L22.9998 32.6693L12.8214 29.2832L12.1045 31.2983C14.9948 33.3158 18.4944 34.5508 22.2807 34.6903Z" fill="#0072FC"/>
<path d="M24.9784 33.5578L31.8736 31.3094L33.8949 31.2983L37.4306 41.2358C37.5433 41.5523 37.2811 41.876 36.9403 41.841L31.9843 41.3333C31.8458 41.3192 31.7082 41.366 31.6087 41.4612L28.046 44.8695C27.8011 45.1038 27.3901 45.0094 27.2776 44.6929L23.7188 34.6905L24.9784 33.5578Z" fill="#0083FD"/>
<path d="M23.7191 34.6903L23 32.6693L33.1784 29.2832L33.8953 31.2983C31.0051 33.3158 27.5055 34.5508 23.7191 34.6903Z" fill="#0072FC"/>
<path d="M23.0008 31.2983C6.32398 31.2983 6.31014 15.7841 6.32398 15.5114C6.76232 6.87252 14.0611 0 23.0008 0C31.9404 0 39.2392 6.87252 39.6776 15.5114C39.6914 15.7841 39.6776 31.2983 23.0008 31.2983Z" fill="#FF9838"/>
<path d="M22.9994 31.023C14.0598 31.023 6.76122 24.1505 6.32278 15.5117C6.30895 15.7844 6.30176 16.0589 6.30176 16.335C6.30176 25.3563 13.7776 32.6696 22.9994 32.6696C32.2212 32.6696 39.697 25.3563 39.697 16.335C39.697 16.0589 39.6898 15.7844 39.676 15.5117C39.2376 24.1505 31.939 31.023 22.9994 31.023Z" fill="#FF8709"/>
<path fill-rule="evenodd" clip-rule="evenodd" d="M36.3068 16.0259C36.1961 23.0394 30.3499 28.6915 23.1542 28.6915C15.9456 28.6915 10.0914 23.0192 10.0011 15.9883C10.0004 15.9482 10 15.9081 10 15.8682C10 15.8607 10 15.8532 10 15.8457C10 15.8382 10 15.8308 10 15.8233C10 15.5466 10.01 15.2723 10.0276 15C10.0279 15.0047 10.0282 15.0094 10.0285 15.0141C10.4779 8.30539 16.1827 3 23.1542 3C30.1258 3 35.8307 8.3055 36.2799 15.0144C36.2802 15.0096 36.2805 15.0048 36.2808 15C36.2984 15.2723 36.3084 15.5466 36.3084 15.8233C36.3084 15.8308 36.3084 15.8383 36.3084 15.8457C36.3084 15.8532 36.3084 15.8607 36.3084 15.8682C36.3084 15.9207 36.3079 15.9733 36.3068 16.0259Z" fill="#BC672E"/>
</svg>
