<svg width="78" height="34" viewBox="0 0 78 34" fill="none" xmlns="http://www.w3.org/2000/svg">
<path d="M20.7441 24.7997C22.2943 24.7997 23.8545 24.7897 25.4047 24.8097C25.81 24.8197 25.9417 24.7197 25.9417 24.2997C25.9518 22.6297 25.9721 22.6297 24.2902 22.6297C22.3044 22.6297 20.3287 22.6397 18.3429 22.6297C16.6509 22.6197 15.4857 21.4397 15.4959 19.7597C15.4959 19.2297 15.4756 18.6897 15.506 18.1597C15.6073 16.6697 16.7927 15.5697 18.3024 15.5597C20.8252 15.5497 23.348 15.5497 25.8708 15.5597C27.0663 15.5597 28.0896 16.3197 28.4949 17.4097C28.6671 17.8997 28.6367 18.0897 28.0187 18.0797C25.0197 18.0497 22.0308 18.0797 19.0318 18.0597C18.5151 18.0597 18.3429 18.1597 18.3631 18.7097C18.4037 20.0897 18.3733 20.0897 19.7613 20.0897C21.7167 20.0897 23.6823 20.0897 25.6377 20.0897C27.7451 20.0897 28.89 21.2197 28.9001 23.2997C28.9001 23.8297 28.89 24.3597 28.8089 24.8897C28.6063 26.2597 27.5121 27.2797 26.1139 27.2897C23.5202 27.3097 20.9366 27.3097 18.3429 27.2897C17.0055 27.2797 15.9011 26.4097 15.5972 25.2297C15.506 24.8697 15.5769 24.7697 15.9619 24.7797C17.5526 24.8097 19.1534 24.7997 20.7441 24.7997Z" fill="white"/>
<path d="M53.7937 20.33C56.6609 20.33 59.4776 20.33 62.2942 20.33C62.5779 20.33 62.6893 20.42 62.6893 20.71C62.6792 22.07 62.7298 23.43 62.6589 24.78C62.588 26.17 61.433 27.17 59.9943 27.17C57.3094 27.17 54.6346 27.17 51.9497 27.17C50.3894 27.17 49.2445 26.13 49.204 24.57C49.1534 22.39 49.1534 20.21 49.204 18.03C49.2344 16.53 50.4401 15.42 51.9801 15.41C54.6143 15.39 57.2486 15.39 59.893 15.41C61.0784 15.42 61.9396 15.99 62.4563 17.05C62.6691 17.5 62.6589 17.7 62.0409 17.7C58.819 17.67 55.5971 17.69 52.3752 17.67C51.899 17.67 51.7167 17.74 51.7268 18.27C51.7673 20.29 51.7572 22.32 51.7268 24.34C51.7167 24.79 51.8686 24.89 52.2942 24.88C54.7055 24.86 57.1169 24.86 59.5282 24.88C60.0247 24.88 60.1564 24.73 60.1057 24.27C60.0348 23.64 60.3894 22.78 59.9639 22.42C59.5991 22.11 58.7582 22.33 58.1301 22.32C57.5424 22.31 56.9548 22.32 56.3773 22.31C54.9892 22.31 54.2699 21.77 53.7937 20.33Z" fill="white"/>
<path d="M8.37307 24.6298C9.84217 24.6298 11.3011 24.6498 12.7601 24.6198C13.2262 24.6098 13.2971 24.7698 13.1958 25.1598C12.9019 26.3498 11.7571 27.2898 10.5007 27.2998C8.04886 27.3198 5.58685 27.3298 3.13497 27.2998C1.43285 27.2898 0.247436 26.0698 0.237305 24.3798C0.237305 22.3998 0.237305 20.4198 0.247436 18.4398C0.257568 16.7198 1.43285 15.5498 3.16537 15.5498C5.57672 15.5498 7.98807 15.5498 10.3994 15.5498C11.7165 15.5498 12.7196 16.2898 13.1451 17.4998C13.3275 17.9998 13.216 18.1698 12.6689 18.1598C9.8523 18.1398 7.03568 18.1698 4.21907 18.1398C3.58077 18.1298 3.44906 18.3198 3.45919 18.9098C3.49972 20.6398 3.48958 22.3798 3.46932 24.1098C3.46932 24.5098 3.55037 24.6398 3.98604 24.6298C5.44501 24.6098 6.90397 24.6298 8.37307 24.6298Z" fill="white"/>
<path d="M55.0454 4.93547C54.4172 4.93547 53.7992 5.00547 53.171 5.00547C52.1883 5.01547 51.8134 4.65547 51.7627 3.68548C51.7526 3.55548 51.8539 3.35547 51.5804 3.35547C51.4385 3.74547 51.6513 4.18548 51.3473 4.79548C51.3473 4.14548 51.013 4.26547 50.7496 4.26547C48.7941 4.26547 46.8286 4.25547 44.8732 4.26547C44.2653 4.27548 43.8499 4.06547 43.6168 3.45547C43.6472 4.27547 43.0089 4.25547 42.5125 4.37547C42.2896 4.42547 41.935 4.66547 41.864 4.22547C41.8134 3.91547 41.6209 3.50547 42.2085 3.40547C42.5023 3.35547 42.6037 3.10547 42.6644 2.81547C42.7962 2.16548 42.5125 1.58548 42.3605 0.995476C42.2693 0.625476 41.7931 0.605476 41.4993 0.425476C39.9795 -0.504524 38.2875 0.145476 37.7506 1.83548C37.5682 2.40548 37.5682 2.96548 37.7607 3.53548C37.8417 3.76548 37.8924 4.00548 37.4871 3.88548C36.4233 3.57548 35.5824 3.90547 34.9339 4.90547C34.2348 5.97547 34.0018 7.17548 34.1842 8.41547C34.2754 9.06547 34.1031 9.26547 33.4851 9.23547C33.0089 9.20547 32.8265 9.42547 32.8265 9.90547C32.8265 10.4755 32.7455 11.0555 32.6543 11.6255C32.4922 12.6155 32.5023 12.6555 33.6168 12.9355C32.9785 13.2055 32.8265 13.6155 32.8975 14.1355C32.9684 14.6855 33.0697 15.2355 33.1204 15.7855C33.1508 16.1455 33.3331 16.5555 32.7961 16.7955C32.6138 16.8755 32.5732 17.1855 32.6239 17.4055C32.8772 18.6555 32.8873 19.9055 32.5834 21.1455C32.3909 21.9455 32.8164 22.8455 32.168 23.5655C31.1548 24.6755 31.0636 26.1855 30.3848 27.4455C30.2429 27.7155 30.1214 28.0755 30.2429 28.3455C30.5266 29.0055 30.2429 29.5955 30.1011 30.2055C29.9795 30.7455 29.787 31.2755 29.6857 31.8155C29.4831 32.8355 29.7161 33.0855 30.7597 33.1055C30.9826 33.1055 31.2055 33.0955 31.4385 33.0855C32.2997 33.0455 32.3301 32.9855 32.1072 32.1255C31.8032 30.9255 31.8843 29.8055 32.9076 28.9155C33.019 28.8155 33.1102 28.6655 33.1508 28.5255C33.3433 27.8355 33.6877 27.2155 33.9714 26.5655C34.093 26.2755 34.2247 25.9855 34.1639 25.6655C34.0626 25.1055 34.3362 24.7155 34.6604 24.2855C35.167 23.6155 35.8965 23.0555 35.8863 22.0855C35.8863 21.9655 35.9775 21.8355 36.0079 21.7055C36.2105 20.7755 36.8691 20.0755 37.2946 19.2455C37.5884 19.4155 37.5581 19.9555 37.9329 19.9655C38.551 19.9955 38.7333 20.4555 39.0069 20.8455C39.3412 21.3155 39.6655 21.7955 39.9795 22.2855C40.1619 22.5655 40.4253 22.7755 40.7495 22.7455C41.4689 22.6755 41.479 23.0755 41.4689 23.6055C41.4486 24.2655 41.0231 24.8255 41.1346 25.5355C41.2967 26.5155 41.4588 27.4855 41.7323 28.4355C42.0363 29.4955 41.6817 30.5355 41.4081 31.5655C41.2663 32.1055 41.4993 32.3055 42.0261 32.2855C42.4112 32.2755 42.8063 32.1755 43.171 32.3155C44.093 32.6655 45.0353 32.5355 45.9775 32.5355C46.1903 32.5355 46.4638 32.5855 46.4942 32.2555C46.5145 32.0055 46.5044 31.7555 46.2207 31.6355C45.9978 31.5355 45.7648 31.4455 45.5419 31.3355C44.6604 30.8955 44.012 30.2655 43.9309 29.2355C43.8397 28.0255 44.1538 26.8355 44.2045 25.6355C44.2754 23.9155 44.5388 22.3055 43.627 20.6555C42.8671 19.2855 42.3706 17.7655 41.2561 16.5955C40.9623 16.2855 40.9623 15.9055 40.9015 15.5355C40.861 15.3155 41.013 15.0755 41.3169 15.1955C41.8336 15.3955 41.9755 15.0455 42.1579 14.6955C42.4821 14.0655 42.32 13.3855 42.4111 12.7255C42.5125 12.0255 42.7455 11.2555 41.8742 10.7755C41.6411 10.6455 41.8032 10.3455 41.8742 10.1655C41.9856 9.88547 42.1781 10.1155 42.3098 10.1855C42.7759 10.4055 43.2217 10.6755 43.6877 10.8855C44.6199 11.3055 45.4912 11.3955 46.2815 10.5355C46.5854 10.1955 46.7475 9.85547 46.8286 9.43547C46.8691 9.19547 46.8894 8.80547 47.0211 8.75547C47.8215 8.47547 47.3858 7.94547 47.3149 7.51547C47.1933 6.81547 47.9431 5.81547 48.6523 5.71547C49.6249 5.57547 50.6178 6.01547 51.6006 5.41547C51.9046 5.23547 52.5834 5.24547 53.1001 5.29547C53.7384 5.36547 54.3869 5.37547 55.0353 5.37547C55.2177 5.37547 55.5419 5.52547 55.552 5.15547C55.5621 4.74547 55.2177 4.93547 55.0454 4.93547ZM45.8357 6.71547C45.5722 7.14547 45.3797 7.63547 44.863 7.94547C44.7516 7.73547 44.6503 7.56547 44.5591 7.38547C44.4882 7.23547 44.3058 6.99547 44.5489 6.94547C45.0758 6.84547 44.9947 6.01547 45.6128 6.12547C45.9471 6.18547 45.9573 6.51547 45.8357 6.71547Z" fill="white"/>
<path d="M77.9781 18.0297C77.9579 16.6397 76.742 15.4297 75.3337 15.4097C72.7907 15.3797 70.2375 15.3797 67.6944 15.4097C66.2456 15.4297 65.05 16.5597 65.0197 17.9797C64.9791 20.2297 64.9791 22.4697 65.0197 24.7197C65.05 26.0697 66.276 27.1497 67.6438 27.1597C68.9305 27.1597 70.2172 27.1597 71.4938 27.1597C72.7603 27.1597 74.0166 27.1697 75.2831 27.1597C76.7724 27.1497 77.9579 26.0297 77.968 24.5697C77.9984 22.3897 78.0085 20.2097 77.9781 18.0297ZM75.4148 24.5297C75.4148 24.9497 75.2932 25.0497 74.8879 25.0497C72.6387 25.0297 70.3895 25.0297 68.1402 25.0497C67.735 25.0497 67.5627 24.9797 67.5627 24.5097C67.5931 22.3997 67.583 20.2897 67.5627 18.1897C67.5627 17.7497 67.6843 17.6297 68.12 17.6397C69.2648 17.6697 70.4097 17.6497 71.5647 17.6497C72.6691 17.6497 73.7734 17.6597 74.8677 17.6397C75.2527 17.6297 75.4148 17.6997 75.4148 18.1397C75.3945 20.2597 75.3945 22.3997 75.4148 24.5297Z" fill="white"/>
</svg>
