<svg width="39" height="45" viewBox="0 0 39 45" fill="none" xmlns="http://www.w3.org/2000/svg">
<path d="M21.6703 39.1004C20.4203 39.1904 19.1603 39.1404 17.9003 39.1104C17.1603 39.0904 17.1603 39.0504 17.0703 39.8204C18.4703 39.1004 19.2103 39.4004 19.3003 40.7404C19.1803 42.0704 19.4003 43.4204 19.1303 44.7704C19.5603 44.8604 19.9603 44.8604 20.3803 44.7604C20.1103 44.0004 20.3103 43.2304 20.2003 42.4804C20.2103 41.6704 20.2203 40.8704 20.2403 40.0604C20.2503 39.8104 20.1803 39.4904 20.5903 39.5204C21.1703 39.5704 21.8203 39.3704 22.2903 39.9304C22.4803 39.3304 22.4403 39.0504 21.6703 39.1004Z" fill="white"/>
<path d="M38.7694 43.8499C37.8894 44.4299 36.9794 44.2199 35.8694 44.1799C36.7494 43.4399 37.4994 42.8799 38.0494 42.1099C38.7094 41.3999 38.9094 40.5699 38.4094 39.7499C37.8594 38.8499 36.8894 38.9399 35.9894 39.0299C35.3195 39.0999 34.9295 39.4099 35.2595 40.3099C35.5395 39.3599 36.1994 39.1599 36.9394 39.4299C37.6094 39.6699 37.6794 40.3299 37.6394 40.9699C37.6294 41.2199 37.5494 41.4699 37.5094 41.7199C36.9194 42.9799 35.8094 43.7899 34.6895 44.8299C35.9394 44.8299 36.9994 44.8099 38.0494 44.8399C38.7894 44.8399 38.8794 44.4599 38.7694 43.8499Z" fill="white"/>
<path d="M37.6693 36.2901C37.6693 35.9101 37.6693 35.5901 37.6693 35.2801C37.6693 31.8601 37.6793 28.4501 37.6493 25.0301C37.6493 24.3901 37.8793 23.7501 37.6293 23.1101C37.4493 22.8201 37.4593 22.5001 37.4693 22.1801C37.4793 21.6801 37.5293 21.2001 36.7593 21.2501C36.3193 21.2801 36.3293 20.9401 36.4893 20.6501C36.6293 20.4101 36.8693 20.2201 37.0593 20.0001C37.0593 19.8701 37.0593 19.7401 37.0693 19.6201C37.3893 18.0901 37.4293 16.6201 36.3693 15.3101C36.0693 14.9301 36.1093 14.6301 36.3793 14.2001C36.7793 13.5701 36.7893 12.7001 37.5593 12.2701C37.6593 12.2101 37.6493 11.9101 37.6493 11.7201C37.6493 9.59009 37.6793 7.46009 37.6193 5.34009C37.5993 4.38009 37.3293 3.45009 37.5893 2.47009C37.6993 2.08009 37.5293 1.67009 37.0493 1.29009C35.8993 0.390087 34.4993 1.13009 33.3593 0.510087C32.7193 1.51009 32.1693 0.580087 31.5493 0.450087C29.8093 0.0700874 28.0193 0.350087 26.2593 0.0700874C25.5393 -0.0399126 24.8893 0.100087 24.7793 1.02009C24.7593 1.20009 24.6693 1.36009 24.4293 1.42009C24.0593 1.51009 21.4493 0.880087 21.2393 0.610087C21.2193 0.590087 21.1993 0.550087 21.2093 0.530087C21.4293 -0.0999126 20.9293 0.0500874 20.6393 0.0400874C19.5493 0.0200874 18.4493 0.0400874 17.3593 0.0100874C16.4593 -0.0199126 15.6093 -0.0199126 14.8093 0.560087C14.1393 1.05009 13.3493 1.27009 12.4593 1.25009C11.3393 1.23009 10.2493 0.830087 9.17926 0.840087C6.73926 0.850087 4.29926 0.440087 1.84926 0.790087C0.619265 0.970087 0.249264 1.26009 0.539264 2.49009C0.979264 4.39009 0.789264 6.28009 0.419264 8.14009C0.149264 9.54009 0.219264 10.8701 0.589264 12.2301C0.879264 13.3001 1.22926 14.3801 0.889264 15.5401C0.719264 16.1301 0.889264 16.7201 1.26926 17.2701C1.80926 18.0601 1.60926 18.9101 0.789264 19.3701C0.539264 19.5101 0.459264 19.6201 0.489264 19.8701C0.569264 20.5101 0.439265 21.1601 0.649265 21.7801C0.659265 22.4401 0.399264 23.2501 0.939264 23.7101C1.62926 24.3001 1.61926 24.9401 1.52926 25.7001C1.40926 26.7501 1.40926 27.8201 0.669264 28.6901C0.449264 28.9401 0.539264 29.3101 0.539264 29.6301C0.509264 31.1501 0.789265 32.6501 0.679265 34.1701C0.569265 35.5901 0.739264 35.7801 2.18926 35.8701C2.72926 35.9001 3.28926 35.9001 3.82926 35.8201C4.91926 35.6601 6.04926 35.6501 7.09926 35.7601C9.51926 36.0101 11.9493 35.6401 14.3693 36.0001C15.0793 36.1101 15.4393 36.2601 15.7993 36.7701C16.0193 37.0701 16.2993 37.6501 16.7193 37.1301C17.2393 36.4801 17.7893 36.7101 18.4293 36.7301C19.1993 36.7501 19.8493 37.5501 20.6493 37.0601C21.4193 36.5801 22.2693 36.4701 23.1493 36.4901C26.3593 36.5401 29.5693 36.1401 32.7893 36.4901C33.1093 36.5201 33.4293 36.5501 33.7193 36.3301C33.8093 36.2601 34.0493 36.2501 33.9593 36.1301C33.3593 35.3201 34.2493 35.6201 34.4093 35.6001C35.5193 35.4501 36.5393 35.8801 37.6693 36.2901ZM27.8893 6.50009C28.5593 6.33009 29.0393 6.83009 29.5393 7.13009C30.7693 7.87009 30.9893 8.35009 30.6293 9.70009C30.3693 10.6601 30.0893 11.6101 30.0893 12.6201C30.0893 13.2501 29.6793 13.4401 29.1893 13.0801C26.9593 11.4701 24.6893 9.90009 22.4693 7.97009C24.3893 7.44009 26.1293 6.95009 27.8893 6.50009ZM14.4593 29.6401C12.7093 30.2301 11.0193 31.0201 8.72926 31.1401C7.92926 31.4001 7.33926 30.4701 6.53927 29.8901C4.40927 28.3301 4.63926 28.6501 5.56926 26.2601C6.01926 25.1301 6.52926 24.0201 6.98926 22.8901C7.17927 22.4201 7.31926 22.2601 7.75926 22.6901C9.93926 24.8301 12.1093 26.9901 14.3993 29.0201C14.5893 29.1701 14.9893 29.4701 14.4593 29.6401ZM32.8693 24.6601C32.5393 25.9101 32.3093 27.1801 31.7993 28.3701C30.9593 30.3401 30.9393 30.3301 28.8493 30.2301C28.5893 30.2201 28.3393 30.1801 28.0793 30.1701C26.8793 30.1201 26.1493 29.4101 25.3493 28.5801C23.6993 26.8701 22.2893 24.9201 20.4693 23.3701C19.9293 22.9101 19.4393 22.4001 19.0093 21.8301C18.3693 20.9701 17.5193 20.3101 16.7493 19.5801C16.5693 19.4101 16.3493 19.2901 16.0993 19.3801C16.1893 19.0401 15.9593 18.7401 15.6793 18.4601C14.6593 17.4301 13.7693 16.2801 12.7293 15.2701C10.3393 12.9701 8.19926 10.4201 5.78926 8.14009C5.66926 8.03009 5.55926 7.91009 5.45926 7.79009C5.27926 7.56009 5.35926 7.41009 5.57926 7.23009C6.44926 6.56009 7.31926 6.57009 8.23926 7.18009C9.43927 7.98009 10.4893 9.04009 11.6793 9.75009C15.8593 12.2301 19.7793 15.1101 23.8593 17.7401C25.2693 18.6501 26.5893 19.6801 28.0593 20.4901C28.3493 20.6501 28.6493 20.8401 28.9193 20.7201C28.9193 20.8201 28.9993 20.8901 29.0893 20.9501C29.5993 20.9501 30.1093 20.9601 30.1693 21.6501C30.6693 22.4501 31.5693 22.7701 32.2493 23.3501C32.6793 23.7001 33.0293 24.0601 32.8693 24.6601Z" fill="white"/>
<path d="M30.1901 43.2498C29.2301 43.4998 28.9901 42.9398 28.7401 42.2898C28.3101 41.1798 27.8001 40.0998 27.2302 38.7998C26.3102 40.9498 25.4802 42.8598 24.6602 44.7798C25.1302 44.8898 25.5302 44.9498 25.5402 44.2398C25.5502 43.8398 25.7902 43.5498 26.3002 43.5998C26.7802 43.6398 27.2701 43.6098 27.7501 43.6098C28.0501 43.6098 28.3401 43.6298 28.4001 44.0198C28.5501 44.9398 29.1701 44.9798 29.9401 44.7898C29.7301 44.2098 28.7501 43.6198 30.1901 43.2498ZM27.8801 43.1298C27.4902 43.3798 26.8302 43.2398 26.2902 43.2298C25.9202 43.2198 26.0202 42.9298 26.0902 42.7398C26.3602 42.0398 26.6502 41.3498 26.9602 40.5798C27.3601 41.0298 27.4402 41.4998 27.5902 41.9398C27.7302 42.3398 28.2101 42.9098 27.8801 43.1298Z" fill="white"/>
<path d="M14.7905 41.5105C14.6205 40.0605 13.7405 39.2005 12.2505 39.0005C10.4005 38.7605 9.05053 39.5205 8.45053 41.1205C8.27053 41.5405 8.16053 41.9605 8.26053 42.4205C8.68053 44.2205 10.1505 45.2205 11.9905 44.9705C13.8905 44.7105 14.9005 43.4505 14.7905 41.5105ZM13.6605 42.6905C13.6805 43.5605 13.3105 44.2105 12.5205 44.5005C11.6805 44.8105 10.8805 44.6005 10.2205 43.9705C9.64053 43.4005 9.40053 42.6905 9.36053 41.9005C9.37053 41.8005 9.39053 41.7105 9.39053 41.6105C9.44053 40.2205 9.98053 39.4705 11.0105 39.3605C12.3505 39.2205 13.3005 39.8905 13.6505 41.2005C13.7005 41.3805 13.7605 41.5605 13.8105 41.7405C13.7605 42.0605 13.6605 42.3805 13.6605 42.6905Z" fill="white"/>
<path d="M4.2 39.3999C3.22 38.9999 2.17 39.1899 1.15 39.1099C0.32 39.0499 -0.15 39.1599 0.1 40.1599C0.2 40.5899 0.14 41.0599 0.15 41.5099C0.03 42.5799 0.24 43.6699 0 44.7799C0.58 44.8299 1.15 44.8899 1.72 44.9299C4.49 45.1399 5.68 44.0699 5.74 41.3099C5.67 40.3199 5.05 39.7499 4.2 39.3999ZM4.79 42.8699C4.31 44.2699 3.25 44.8799 1.8 44.5999C1.32 44.5099 1.08 44.2499 1.08 43.7399C1.09 42.9999 1.06 42.2599 1.04 41.5199C1.05 41.1699 1.07 40.8099 1.07 40.4599C1.08 39.3699 1.21 39.2599 2.31 39.4199C4.13 39.6799 4.9 40.7599 4.79 42.8699Z" fill="white"/>
</svg>
