<svg width="45" height="52" viewBox="0 0 45 52" fill="none" xmlns="http://www.w3.org/2000/svg">
<path d="M13.6242 36.2114L11.8402 36.2984L8.3814 46.2359C8.27118 46.5524 8.52765 46.8761 8.86102 46.8411L13.7093 46.3334C13.8448 46.3193 13.9794 46.3661 14.0768 46.4613L17.5621 49.8696C17.8017 50.1039 18.2037 50.0095 18.3138 49.693L21.7953 39.6906L20.7687 38.6942L13.6242 36.2114Z" fill="#98DB7C"/>
<path d="M20.955 42.1464L21.6585 40.1253L11.7014 36.7393L11 38.7543C13.8274 40.7719 17.251 42.0069 20.955 42.1464Z" fill="#7AB064"/>
<path d="M31.374 36.2114L33.158 36.2984L36.6169 46.2359C36.7271 46.5524 36.4706 46.8761 36.1373 46.8411L31.289 46.3334C31.1535 46.3193 31.0189 46.3661 30.9216 46.4613L27.4363 49.8696C27.1967 50.1039 26.7947 50.0095 26.6846 49.693L23.2031 39.6906L24.2297 38.6942L31.374 36.2114Z" fill="#98DB7C"/>
<path d="M24.0004 41.9999L23.2969 39.9788L33.254 36.5928L33.9554 38.6078C31.1279 40.6254 27.7044 41.8604 24.0004 41.9999Z" fill="#7AB064"/>
<g clip-path="url(#clip0)">
<path d="M20.1726 8.39036L19.8479 8.27853C19.2224 8.06316 18.585 7.88066 17.9385 7.73181C18.1463 6.1082 18.7741 4.28579 20.7225 4.03728C20.9148 4.01222 21.1086 3.99976 21.3027 4C24.2556 4 28.7541 6.78747 31.2868 11.9731C32.4724 14.3939 33.172 16.0182 33.6398 17.1039L33.6812 17.2001C33.9287 17.8534 34.2314 18.4864 34.5861 19.0928C34.6901 19.2527 34.8044 19.4063 34.9281 19.5526C34.8115 20.039 34.6669 20.5187 34.4952 20.9898C34.3826 21.3047 34.27 21.6029 34.1618 21.8886C33.5741 21.4521 33.074 20.9175 32.6854 20.3106C32.2472 19.5914 31.8777 18.8359 31.5812 18.0533L31.5718 18.0314C31.1129 16.9626 30.4215 15.3526 29.2346 12.9257C27.2127 8.79212 23.5542 6.2366 21.3201 6.2366C21.2264 6.23017 21.1322 6.23017 21.0385 6.2366C20.6922 6.27802 20.3068 6.73363 20.1726 8.39036Z" fill="#358A27"/>
<path d="M9.10591 14.2498L8.79417 14.3948L8.74222 14.3906C8.14755 14.6677 7.56939 14.9761 7.01035 15.3143C5.95824 13.9889 5.07932 12.2742 6.27864 10.7582C7.56455 9.1305 10.4221 8.12402 13.7387 8.12402C15.7057 8.13135 17.6568 8.46343 19.5057 9.10565C22.1859 10.05 23.8831 10.7251 25.0044 11.1766C25.6564 11.4653 26.331 11.7049 27.0221 11.8931C27.218 11.9321 27.416 11.9611 27.6152 11.9801C27.8819 12.4029 28.1261 12.8383 28.347 13.2848C28.5072 13.5954 28.65 13.8812 28.7799 14.1587C28.5326 14.2012 28.2821 14.2233 28.0308 14.225C27.54 14.2196 27.0509 14.1654 26.5718 14.0634C25.7389 13.8583 24.9275 13.581 24.1471 13.2351L24.116 13.2226C23.016 12.7835 21.3557 12.1206 18.7524 11.2221C17.1575 10.6668 15.4749 10.3768 13.7776 10.3648C10.8378 10.3648 8.82015 11.2511 8.12741 12.1292C7.92391 12.3901 7.97586 12.9658 9.10591 14.2498Z" fill="#358A27"/>
<path d="M32.2566 11.8479L32.1224 11.5621V11.5662C31.8347 10.9811 31.5138 10.4114 31.1611 9.85978C32.0314 9.19293 33.0662 8.61722 34.1313 8.61722C34.7388 8.61414 35.3296 8.80835 35.8069 9.16808C38.2358 10.9946 39.5694 16.3998 37.5041 22.0327C36.5516 24.6296 35.8588 26.2781 35.3956 27.3674C35.0945 28.0019 34.8468 28.6583 34.6552 29.3306L34.6428 29.3901L34.6318 29.4418C34.5963 29.6081 34.5643 29.7586 34.5643 29.898C34.1301 30.1551 33.682 30.3901 33.222 30.6021L32.3171 31.0164C32.2166 30.3024 32.2518 29.5769 32.4211 28.8749C32.6375 28.0668 32.9272 27.2782 33.2871 26.5183C33.3411 26.3882 33.3983 26.2512 33.459 26.1061L33.4603 26.1029C33.9091 25.0291 34.5378 23.5251 35.3608 21.283C37.1447 16.3956 35.9367 12.0591 34.417 10.9284C34.3362 10.8663 34.2348 10.8339 34.1313 10.8372C33.6074 10.8372 32.8843 11.3301 32.2566 11.8479Z" fill="#358A27"/>
<path d="M35.01 34.2345L34.6983 34.3753C35.8284 35.6633 35.8803 36.2391 35.6768 36.4959C34.9841 37.374 32.9665 38.2645 30.0482 38.2645C28.3423 38.2546 26.6508 37.9646 25.0475 37.4072C22.402 36.5001 20.7352 35.8456 19.6182 35.3941C18.8372 35.0461 18.024 34.7687 17.1891 34.5659C16.727 34.468 16.2554 34.4166 15.782 34.4126C15.5148 34.4133 15.2482 34.4369 14.9854 34.483L15.4183 35.3444C15.6392 35.7889 15.8849 36.2216 16.1543 36.6408C16.3495 36.6576 16.5433 36.6866 16.7345 36.7279C17.4271 36.9114 18.1021 37.1512 18.7521 37.4444L18.8103 37.4675C19.932 37.9151 21.6166 38.5871 24.2508 39.5153C26.0986 40.1493 28.0462 40.4758 30.0092 40.4803C32.8886 40.4803 36.1877 39.4698 37.4737 37.8462C38.673 36.3261 37.794 34.6114 36.7418 33.29C36.1819 33.628 35.6038 33.9377 35.01 34.2178V34.2345Z" fill="#358A27"/>
<path d="M11.5087 36.7279L11.6689 37.0634L11.6516 37.0759C11.9402 37.6281 12.2548 38.1804 12.5954 38.7325C11.6948 39.474 10.79 40.0579 9.72053 40.0579C9.08768 40.0492 8.47682 39.8345 7.98867 39.4491C5.56405 37.6557 4.22619 32.2298 6.28277 26.6094C7.2353 24.0083 7.92804 22.3598 8.39565 21.2706C8.69767 20.6382 8.94386 19.983 9.13169 19.3115C9.17932 19.1044 9.20529 18.9181 9.22694 18.7482C9.65949 18.4884 10.1061 18.2505 10.5648 18.0358L11.4697 17.6216C11.5703 18.3312 11.5366 19.0523 11.3701 19.7505C11.1551 20.5577 10.8653 21.3451 10.5042 22.1031L10.4489 22.2348C9.99866 23.3068 9.33233 24.8934 8.43462 27.3426C6.65079 32.2298 7.85877 36.5665 9.37416 37.6971C9.47253 37.7873 9.60174 37.8403 9.73785 37.8462C10.1622 37.8462 10.8462 37.3037 11.5087 36.7279Z" fill="#358A27"/>
<path d="M5.48703 26.0862C5.501 26.048 5.51494 26.0098 5.52938 25.9711C3.7975 25.8677 3.36454 25.6979 3.2996 25.1925C3.04849 23.337 5.33021 19.4394 10.1621 17.2071C12.682 16.0432 14.3446 15.3722 15.4443 14.929C16.2501 14.6391 17.0268 14.28 17.765 13.8563C18.401 13.4726 18.9573 12.9797 19.406 12.4025L18.4535 12.067C17.9809 11.9046 17.4996 11.7663 17.0117 11.6528C16.8688 11.7647 16.7086 11.8765 16.5138 12.0007C15.8906 12.3454 15.239 12.6404 14.5654 12.883C13.444 13.3344 11.7554 14.022 9.18361 15.2065C3.63731 17.7745 0.636857 22.5294 1.03519 25.4908C1.31661 27.5617 3.16538 27.9758 4.84962 28.1374C5.00115 27.5202 5.183 26.8949 5.39949 26.3067V26.319C5.43123 26.2391 5.45914 26.1627 5.48703 26.0862Z" fill="#358A27"/>
<path d="M42.756 23.1591C42.5005 21.2621 40.6431 20.6491 38.9546 20.4502C38.8028 21.0837 38.6148 21.7087 38.3916 22.3224L38.2791 22.6206C40.0109 22.7532 40.444 23.1259 40.4958 23.449C40.7426 25.2921 38.4436 29.1896 33.629 31.4095C31.1998 32.5335 29.566 33.1978 28.4664 33.6449L28.3512 33.6918C27.5433 33.9801 26.765 34.3392 26.0261 34.7645C25.3873 35.1461 24.8291 35.6392 24.3809 36.2183L25.3334 36.5538C25.8064 36.715 26.2877 36.8532 26.7751 36.968C26.9342 36.8418 27.1004 36.7242 27.2731 36.6159C27.8965 36.273 28.5481 35.9794 29.2214 35.7378L29.3188 35.6983C30.4402 35.2429 32.1089 34.565 34.5989 33.4142C40.1539 30.8753 43.1543 26.0956 42.756 23.1591Z" fill="#358A27"/>
<path d="M23.6236 40.2398L23.9484 40.3516C24.5674 40.5646 25.1976 40.7471 25.8361 40.8983C25.6498 42.5178 25.0004 44.3402 23.0521 44.5887C22.8599 44.6153 22.6661 44.6292 22.4719 44.6302C19.5407 44.6261 15.0422 41.8386 12.5137 36.6737C11.2971 34.1885 10.5913 32.5319 10.141 31.4467C9.89162 30.7941 9.58905 30.1612 9.23615 29.5538C9.11491 29.3758 9.00235 29.2267 8.89844 29.1024C9.01492 28.6133 9.15946 28.1307 9.3314 27.6568C9.3998 27.4681 9.4682 27.2856 9.53467 27.108C9.57758 26.9935 9.61968 26.8811 9.66045 26.7705C10.2468 27.201 10.7445 27.7319 11.1282 28.3361C11.5646 29.0556 11.9327 29.811 12.2279 30.5935C12.2638 30.6758 12.301 30.7615 12.3397 30.8507C12.8014 31.9134 13.4754 33.4652 14.566 35.7045C16.5836 39.8339 20.2421 42.3935 22.4762 42.3935C22.5699 42.3982 22.6639 42.3982 22.7576 42.3935C23.1041 42.3522 23.4851 41.8965 23.6236 40.2398Z" fill="#358A27"/>
</g>
<path d="M22.3355 39.6508C6.00088 39.6508 6.00774 23.784 6.02127 23.5113C6.45009 14.8725 13.5902 8 22.3355 8C31.0808 8 38.221 14.8725 38.6498 23.5114C38.6633 23.7841 38.6702 39.6508 22.3355 39.6508Z" fill="#7AFFBF"/>
<path d="M22.3346 39.0226C13.5894 39.0226 6.44947 32.1501 6.02057 23.5112C6.00703 23.784 6 24.0584 6 24.3345C6 33.3559 13.3133 40.6692 22.3346 40.6692C31.356 40.6692 38.6693 33.3559 38.6693 24.3345C38.6693 24.0584 38.6623 23.784 38.6487 23.5112C38.2198 32.1501 31.0799 39.0226 22.3346 39.0226Z" fill="#58F972"/>
<path fill-rule="evenodd" clip-rule="evenodd" d="M35.1721 23.5753C35.1735 23.5539 35.1749 23.5326 35.1763 23.5112C35.1935 23.7835 35.2033 24.0578 35.2033 24.3345C35.2033 31.4414 29.442 37.2027 22.335 37.2027C15.2281 37.2027 9.4668 31.4414 9.4668 24.3345C9.4668 24.0579 9.47655 23.7835 9.49378 23.5112C9.49459 23.524 9.49541 23.5368 9.49626 23.5496C9.4897 23.3681 9.4909 23.2586 9.49235 23.2358C9.91695 16.5125 15.5043 11.1909 22.3347 11.1909C29.165 11.1909 34.7524 16.5125 35.177 23.2358C35.1785 23.2597 35.1797 23.3784 35.1721 23.5753Z" fill="#3EFF68"/>
<defs>
<clipPath id="clip0">
<rect width="42" height="42" fill="white" transform="translate(1 4)"/>
</clipPath>
</defs>
</svg>
