<?xml version="1.0" encoding="utf-8"?>
<!-- Generator: Adobe Illustrator 22.1.0, SVG Export Plug-In . SVG Version: 6.00 Build 0)  -->
<svg version="1.1" id="Слой_1" xmlns="http://www.w3.org/2000/svg" xmlns:xlink="http://www.w3.org/1999/xlink" x="0px" y="0px"
	 viewBox="0 0 800 450" style="enable-background:new 0 0 800 450;" xml:space="preserve">
<style type="text/css">
	.st0{fill:#454A4B;}
</style>
<g>
	<path class="st0" d="M417.9,89.7c4.2,9.5,8.5,18.9,12.7,28.4c4.3,9.7,8.6,19.3,12.8,29c1.5,3.5,3.5,6.4,6.3,9
		c18,17.2,35.9,34.5,53.9,51.7c3.5,3.4,3.5,3.4,5.8-1.1c21.9-42.3,14.3-92.6-19.2-126.8c-2.4-2.4-2.7-3.8-0.5-6.5
		c7.7-9.2,15.3-18.5,22.8-28c2-2.5,3-2.8,5.5-0.5c22.9,22.2,38.4,48.6,44.5,80c10.4,53.9-3.7,101-42.1,140.1
		c-26.1,26.6-58.4,41.1-95.6,44.6c-76.1,7.2-147.1-42.1-164.9-115.9c-13.8-57.2,1.3-107.1,43-148.8c2.3-2.3,3.4-2.2,5.4,0.4
		c7.6,9.7,15.4,19.2,23.3,28.6c1.7,2.1,1.9,3.2-0.2,5.2c-17.9,17.9-28.6,39.6-31.5,64.6c-2.7,22.9,1.7,44.7,12.7,65
		c1.1,2.1,1.9,1.8,3.4,0.4c19.2-18.6,38.5-37.2,57.8-55.7c1.4-1.3,2.1-3,2.9-4.7c8.3-18.7,16.6-37.3,24.9-56
		c0.4-0.9,0.8-1.7,1.4-2.8c1.3,1,0.8,2.2,0.8,3.2c0,29.8,0,59.5,0.1,89.3c0,2.5-0.9,4.2-2.7,5.9c-18.5,17.7-37,35.5-55.4,53.2
		c-0.7,0.7-1.4,1.5-2.3,2.4c11.9,9,24.9,15.3,39.2,18.8c32.1,7.7,62.1,2.7,89.9-15.3c5.2-3.3,5.1-3.4,0.8-7.5
		c-17.9-17.2-35.7-34.3-53.5-51.5c-1.4-1.3-2.9-2.5-2.9-4.9c0.1-31.2,0.1-62.4,0.1-93.6C417.4,89.8,417.7,89.8,417.9,89.7z"/>
	<path class="st0" d="M409.8,46.5c-23.6,0.2-45.4,7.1-64.9,21.2c-2.1,1.5-3.1,1.4-4.7-0.7c-7.8-9.9-15.7-19.7-23.8-29.3
		c-2-2.4-1.2-3.3,0.8-4.9C339.8,16.2,365,6.1,392.9,3.1c40.5-4.3,77.4,5.6,110.5,29.6c2.8,2,2.9,3.2,0.7,5.8
		c-7.8,9.3-15.5,18.8-23,28.3c-1.8,2.3-3,2.4-5.4,0.7C456.1,53.5,434.3,46.5,409.8,46.5z"/>
	<path class="st0" d="M410,390.2c-4.7,10.5-9.1,20.1-13.3,29.8c-1.2,2.8-2.8,3.4-5.7,3.8c-8.2,1.2-12.2-1.9-15.3-9.7
		c-7.2-18.2-15.5-35.9-23.4-53.8c-0.4-0.9-0.7-1.8-1.3-3.3c7.5,0,14.5,0.1,21.6,0c2.2,0,2.5,1.6,3.1,2.9c3.6,8.4,7,16.9,10.6,25.3
		c0.6,1.4,0.8,3,2.5,4.4c4.1-9.2,8.3-18.3,12-27.5c1.6-3.9,3.7-4.9,7.8-5.3c7.7-0.8,11.8,1.7,14.3,9.2c2.7,8.2,6.8,15.9,10.6,24.6
		c4.5-10.5,8.7-20.1,12.6-29.9c1.1-2.8,2.5-4,5.6-3.8c4.4,0.3,8.9,0.2,13.3,0c3.5-0.2,4.6,0.5,2.9,4.1
		c-8.2,18.4-16.5,36.8-24.1,55.4c-2.3,5.6-5.1,7.4-11.2,7.5c-6.4,0.1-9.3-2-11.4-7.7C418.2,407.7,414.1,399.5,410,390.2z"/>
	<path class="st0" d="M17.2,423.6c6.1-6.1,11.4-11.6,16.8-17c1-1.1,2.4-0.7,3.7-0.7c8.2,0,16.3-0.2,24.5,0.1
		c3.1,0.1,3.8-0.9,3.8-3.9c-0.2-7.9-0.3-15.7,0-23.6c0.1-3.4-1.1-4-4.1-3.9c-11.4,0.2-22.9,0.2-34.3,0c-2.9,0-3.9,0.6-3.9,3.7
		c0.2,8.6,0,17.2,0.1,25.8c0,2.3-0.5,4-2.3,5.7c-3.3,3.1-6.6,6.3-9.7,9.8c-1.8,2-3.2,1.7-5.1,0.3c-3.8-2.9-5.8-6.6-5.8-11.4
		c0-12.2-0.1-24.3,0-36.5c0.1-6.8,3.4-11.2,9.9-13.6c2.9-1,5.8-1.4,8.9-1.4c16.6,0,33.2,0.1,49.8,0c5.4,0,9,1.6,12.4,6.4
		c5.1,7.1,7.6,14.3,6.8,23c-0.6,7,0,14-0.1,21c-0.1,8.5-5.1,14.2-13.5,15.6c-2.7,0.4-5.4,0.6-8.1,0.7c-14.9,0.1-29.8,0-44.6,0
		C20.8,423.6,19.5,423.6,17.2,423.6z"/>
	<path class="st0" d="M330.3,398.7c9.7,8.5,18.6,16.3,28.5,24.9c-5.5,0-9.9-0.5-14.1,0.1c-12.3,1.8-22.1-2-30.1-11.6
		c-2.7-3.3-6.1-6.1-9.6-8.6c-4.3-3.2-6.1-6.9-5.6-12.3c0.5-6.1,0.1-6.2,6.2-6.2c5.1,0,10.3-0.1,15.4,0.1c2.9,0.1,4-0.6,4-3.8
		c-0.1-7.3,0.1-7.3-7.3-7.3c-7.9,0-15.7,0.2-23.6-0.1c-3.7-0.1-5.1,0.7-5,4.8c0.3,13.4-0.1,26.9,0.2,40.3c0.1,4-1.2,4.8-4.8,4.6
		c-4.7-0.3-9.4-0.2-14.2,0c-2.6,0.1-3.7-0.4-3.7-3.4c0.1-20,0.1-40.1,0-60.1c0-2.4,0.6-3.2,3.1-3.2c20.3,0.1,40.6-0.1,60.9,0.1
		c11,0.1,16,5.5,16,16.6c0,3.1,0,6.3,0,9.4c0,8.9-3.4,13-12.1,14.9C333.7,398.2,332.6,398.3,330.3,398.7z"/>
	<path class="st0" d="M713.7,390.3c0-9.9,0.1-19.8,0-29.6c0-2.6,0.4-3.9,3.5-3.8c5.4,0.2,10.9,0.2,16.3,0c2.7-0.1,3.4,1,3.3,3.5
		c-0.2,5.6,0.1,11.2-0.1,16.7c-0.1,2.7,0.8,3.4,3.4,3.3c11.3-0.1,22.6-0.1,33.9,0c2.8,0,3.4-0.9,3.3-3.5c-0.2-5.6,0-11.2-0.1-16.7
		c0-2.3,0.4-3.4,3-3.3c5.6,0.2,11.2,0.1,16.7,0c2.2,0,3,0.6,3,2.9c-0.1,20.3-0.1,40.6,0,61c0,2.3-0.9,2.9-3.1,2.8
		c-5.4-0.1-10.9-0.2-16.3,0c-2.6,0.1-3.5-0.7-3.4-3.4c0.2-6.4,0-12.9,0.1-19.3c0.1-2.4-0.6-3.2-3.1-3.2c-11.4,0.1-22.9,0.2-34.3,0
		c-2.9,0-3.2,1.1-3.2,3.5c0.1,6.3-0.1,12.6,0.1,18.9c0.1,2.5-0.5,3.6-3.3,3.5c-5.4-0.2-10.9-0.2-16.3,0c-3,0.1-3.5-1.1-3.5-3.7
		C713.8,410.1,713.7,400.2,713.7,390.3z"/>
	<path class="st0" d="M663.8,357c7.4,0,14.9,0,22.3,0c4.5,0,8.8,1,12.6,3.6c5.2,3.6,5.9,9,5.7,14.9c-0.2,6.9-0.1,6.9-7.1,6.9
		c-3.9,0-7.7-0.2-11.6,0.1c-3.2,0.2-4.6-0.8-4-4c0.5-2.9-0.5-3.9-3.6-3.9c-10,0.2-20,0.2-30.1,0c-3.1-0.1-3.8,1-3.8,3.9
		c0.2,7.9,0.2,15.7,0,23.6c-0.1,2.9,0.7,4,3.8,3.9c10-0.2,20-0.2,30.1,0c3.2,0.1,4.1-1.1,3.6-3.9c-0.7-4.1,0.7-5.5,5-5.1
		c4.8,0.4,9.7,0.2,14.6,0c2.5-0.1,3.3,0.8,3.1,3.2c-0.2,2.1,0,4.3,0,6.4c0,9.2-4.9,14.9-14.1,16.4c-7.3,1.2-14.6,0.6-21.8,0.5
		c-10.7-0.1-21.5,0.9-32.2-0.5c-9.8-1.3-14.5-7-14.5-16.8c0-7.7,0.1-15.5,0-23.2c0-2.5,0.5-4.7,1.9-6.8c3.5-5.2,7.1-10.4,10.3-15.8
		c1.6-2.7,3.6-3.6,6.7-3.5C648.3,357.1,656,357,663.8,357z"/>
	<path class="st0" d="M221.5,423.6c-10.4,0-20.9-0.1-31.3,0.1c-2.9,0-4-0.6-3.9-3.7c0.2-14.5,0.2-28.9,0-43.4c0-2.9,1.8-4.7,2.8-7
		c4.9-10.8,12.9-14,24.6-12.9c12.9,1.2,26,0.4,39,0.2c3,0,4.5,0.5,4.2,3.9c-0.3,3.4-0.3,6.9,0,10.3c0.2,3-1,3.6-3.7,3.5
		c-13.3-0.1-26.6,0-39.9-0.1c-3.1,0-4.1,0.6-4.1,4c0,3.3,1.1,4,4.2,4c8.3-0.2,16.6,0,24.9-0.1c2.4,0,3.3,0.6,3.1,3.1
		c-0.2,3-0.2,6,0,9c0.2,2.8-0.9,3.3-3.5,3.3c-8.4-0.1-16.9,0.1-25.3-0.1c-3.7-0.1-3.3,1.9-3.3,4.3c-0.1,2.6,0,4.2,3.5,4.1
		c13.4-0.2,26.9,0,40.4-0.2c3.1,0,4,0.9,3.8,3.9c-0.2,3.4-0.3,6.9,0,10.3c0.3,3.2-1.1,3.7-3.9,3.7
		C242.4,423.5,232,423.6,221.5,423.6z"/>
	<path class="st0" d="M451.9,423.6c3.6-5.4,6.7-10.1,9.9-14.8c10.8-16.1,21.7-32.2,32.4-48.4c1.6-2.4,3.3-3.1,6.2-3.5
		c10.1-1.7,15.9,2.6,21,11.3c10.6,17.8,22.4,34.8,33.7,52.2c0.6,0.9,1.7,1.6,1.3,3.3c-7.6,0-15.3,0-23,0c-2.1,0-2.6-1.6-3.4-2.8
		c-7.7-11.9-15.3-23.8-22.9-35.7c-0.8-1.3-1.7-2.6-2.8-4.3c-5.6,8.6-11,17-16.5,25.4c-3.2,4.9-6.4,9.8-9.5,14.8
		c-1.2,1.9-2.5,2.7-4.8,2.7C466.7,423.5,459.8,423.6,451.9,423.6z"/>
	<path class="st0" d="M137.3,397.4c8-12.7,15.6-24.8,23-36.9c1.6-2.6,3.4-3.6,6.5-3.5c6.6,0.3,13.1,0.1,19.6,0.1
		c1,1.5-0.3,2.3-0.8,3.1c-13,20-26.2,39.9-39.2,59.9c-1.8,2.7-3.7,3.4-6.9,3.8c-8.1,1.1-12.7-2-16.8-9.1
		c-10.7-18.4-22.5-36.1-33.9-54.1c-0.6-0.9-1.8-1.9-1.3-3c0.5-1.3,2-0.6,3.1-0.6c6.1-0.1,12.3,0.1,18.4-0.1c2.5-0.1,3.8,0.8,5.1,2.9
		C121.7,372.2,129.3,384.4,137.3,397.4z"/>
	<path class="st0" d="M625.5,357c-3.9,5.9-7.4,10.9-10.6,16.1c-1,1.5-2.2,1.5-3.7,1.5c-5.1,0-10.3,0.3-15.4-0.1
		c-4.2-0.3-4.9,1.3-4.8,5c0.2,13.3,0,26.6,0.2,39.9c0.1,3.4-1,4.4-4.3,4.2c-4.7-0.3-9.4-0.3-14.1,0c-3.3,0.2-4.4-0.6-4.3-4.2
		c0.2-13.7,0-27.5,0.2-41.2c0-3-0.8-3.9-3.8-3.8c-7.3,0.2-14.6,0-21.9,0.1c-2.7,0.1-3.5-0.8-3.4-3.4c0.2-3.4,0.3-6.9,0-10.3
		c-0.3-3.3,1-4.1,4.1-4c22,0.1,44,0.1,66.1,0.1C614.6,357,619.6,357,625.5,357z"/>
	<path class="st0" d="M522.3,423.8c-6.1,8.7-11.8,16.8-17.8,25.2c-6-8.5-11.7-16.6-17.7-25.2C498.9,423.8,510.2,423.8,522.3,423.8z"
		/>
	<path class="st0" d="M156.1,356c-12.1,0-23.5,0-35.5,0c6-8.6,11.7-16.7,17.7-25.2C144.2,339.2,149.9,347.2,156.1,356z"/>
</g>
</svg>
