<svg width="80" height="45" viewBox="0 0 80 45" fill="none" xmlns="http://www.w3.org/2000/svg">
<path d="M41.7896 8.96942C42.2096 9.91942 42.6396 10.8594 43.0596 11.8094C43.4896 12.7794 43.9196 13.7394 44.3396 14.7094C44.4896 15.0594 44.6896 15.3494 44.9696 15.6094C46.7696 17.3294 48.5596 19.0594 50.3596 20.7794C50.7096 21.1194 50.7096 21.1194 50.9396 20.6694C53.1296 16.4394 52.3696 11.4094 49.0196 7.98942C48.7796 7.74942 48.7496 7.60942 48.9696 7.33942C49.7396 6.41942 50.4996 5.48942 51.2496 4.53942C51.4496 4.28942 51.5496 4.25942 51.7996 4.48942C54.0896 6.70942 55.6396 9.34943 56.2496 12.4894C57.2896 17.8794 55.8796 22.5894 52.0396 26.4994C49.4296 29.1594 46.1996 30.6094 42.4796 30.9594C34.8696 31.6794 27.7696 26.7494 25.9896 19.3694C24.6096 13.6494 26.1196 8.65942 30.2896 4.48942C30.5196 4.25942 30.6296 4.26942 30.8296 4.52942C31.5896 5.49942 32.3696 6.44942 33.1596 7.38942C33.3296 7.59942 33.3496 7.70942 33.1396 7.90942C31.3496 9.69942 30.2796 11.8694 29.9896 14.3694C29.7196 16.6594 30.1596 18.8394 31.2596 20.8694C31.3696 21.0794 31.4496 21.0494 31.5996 20.9094C33.5196 19.0494 35.4496 17.1894 37.3796 15.3394C37.5196 15.2094 37.5896 15.0394 37.6696 14.8694C38.4996 12.9994 39.3296 11.1394 40.1596 9.26942C40.1996 9.17942 40.2396 9.09942 40.2996 8.98942C40.4296 9.08942 40.3796 8.96942 40.3796 9.30942C40.3796 12.2894 40.3796 15.2594 40.3896 18.2394C40.3896 18.4894 40.2996 18.6594 40.1196 18.8294C38.2696 20.5994 36.4196 22.3794 34.5796 24.1494C34.5096 24.2194 34.4396 24.2994 34.3496 24.3894C35.5396 25.2894 36.8396 25.9194 38.2696 26.2694C41.4796 27.0394 44.4796 26.5394 47.2596 24.7394C47.7796 24.4094 47.7696 24.3994 47.3396 23.9894C45.5496 22.2694 43.7696 20.5594 41.9896 18.8394C41.8496 18.7094 41.6996 18.5894 41.6996 18.3494C41.7096 15.2294 41.7096 12.1094 41.7096 8.98942C41.7396 8.97942 41.7696 8.97942 41.7896 8.96942Z" fill="white"/>
<path d="M40.9812 4.64961C38.6212 4.66961 36.4412 5.35961 34.4912 6.76961C34.2812 6.91961 34.1812 6.90961 34.0212 6.69961C33.2412 5.70961 32.4512 4.72961 31.6412 3.76961C31.4412 3.52961 31.5212 3.43961 31.7212 3.27961C33.9812 1.61961 36.5012 0.609607 39.2912 0.309607C43.3412 -0.120393 47.0312 0.869607 50.3412 3.26961C50.6212 3.46961 50.6312 3.58961 50.4112 3.84961C49.6312 4.77961 48.8612 5.72961 48.1112 6.67961C47.9312 6.90961 47.8112 6.91961 47.5712 6.74961C45.6112 5.34961 43.4312 4.64961 40.9812 4.64961Z" fill="white"/>
<path d="M40.9996 39.0193C40.5296 40.0693 40.0896 41.0293 39.6696 41.9993C39.5496 42.2793 39.3896 42.3393 39.0996 42.3793C38.2796 42.4993 37.8796 42.1893 37.5696 41.4093C36.8496 39.5893 36.0196 37.8193 35.2296 36.0293C35.1896 35.9393 35.1596 35.8493 35.0996 35.6993C35.8496 35.6993 36.5496 35.7093 37.2596 35.6993C37.4796 35.6993 37.5096 35.8593 37.5696 35.9893C37.9296 36.8293 38.2696 37.6793 38.6296 38.5193C38.6896 38.6593 38.7096 38.8193 38.8796 38.9593C39.2896 38.0393 39.7096 37.1293 40.0796 36.2093C40.2396 35.8193 40.4496 35.7193 40.8596 35.6793C41.6296 35.5993 42.0396 35.8493 42.2896 36.5993C42.5596 37.4193 42.9696 38.1893 43.3496 39.0593C43.7996 38.0093 44.2196 37.0493 44.6096 36.0693C44.7196 35.7893 44.8596 35.6693 45.1696 35.6893C45.6096 35.7193 46.0596 35.7093 46.4996 35.6893C46.8496 35.6693 46.9596 35.7393 46.7896 36.0993C45.9696 37.9393 45.1396 39.7793 44.3796 41.6393C44.1496 42.1993 43.8696 42.3793 43.2596 42.3893C42.6196 42.3993 42.3296 42.1893 42.1196 41.6193C41.8196 40.7693 41.4096 39.9493 40.9996 39.0193Z" fill="white"/>
<path d="M1.72038 42.3592C2.33038 41.7492 2.86038 41.1992 3.40038 40.6592C3.50038 40.5492 3.64038 40.5892 3.77038 40.5892C4.59038 40.5892 5.40038 40.5692 6.22038 40.5992C6.53038 40.6092 6.60038 40.5092 6.60038 40.2092C6.58038 39.4192 6.57038 38.6392 6.60038 37.8492C6.61038 37.5092 6.49038 37.4492 6.19038 37.4592C5.05038 37.4792 3.90038 37.4792 2.76038 37.4592C2.47038 37.4592 2.37038 37.5192 2.37038 37.8292C2.39038 38.6892 2.37038 39.5492 2.38038 40.4092C2.38038 40.6392 2.33038 40.8092 2.15038 40.9792C1.82038 41.2892 1.49038 41.6092 1.18038 41.9592C1.00038 42.1592 0.860382 42.1292 0.670382 41.9892C0.290382 41.6992 0.0903819 41.3292 0.0903819 40.8492C0.0903819 39.6292 0.0803819 38.4192 0.0903819 37.1992C0.100382 36.5192 0.430382 36.0792 1.08038 35.8392C1.37038 35.7392 1.66038 35.6992 1.97038 35.6992C3.63038 35.6992 5.29038 35.7092 6.95038 35.6992C7.49038 35.6992 7.85038 35.8592 8.19038 36.3392C8.70038 37.0492 8.95038 37.7692 8.87038 38.6392C8.81038 39.3392 8.87038 40.0392 8.86038 40.7392C8.85038 41.5892 8.35038 42.1592 7.51038 42.2992C7.24038 42.3392 6.97038 42.3592 6.70038 42.3692C5.21038 42.3792 3.72038 42.3692 2.24038 42.3692C2.08038 42.3592 1.95038 42.3592 1.72038 42.3592Z" fill="white"/>
<path d="M33.0302 39.8695C34.0002 40.7195 34.8902 41.4995 35.8802 42.3595C35.3302 42.3595 33.9103 42.3595 33.4502 42.3595C32.5002 42.3595 32.1002 41.6852 30.5002 40.3495C30.0003 39.9994 29.8902 39.6595 29.9402 39.1195C29.9902 38.5095 29.9502 38.4995 30.5602 38.4995C31.0702 38.4995 31.5902 38.4895 32.1002 38.5095C32.3902 38.5195 32.5002 38.4495 32.5002 38.1295C32.4902 37.3995 32.5102 37.3995 31.7702 37.3995C30.9802 37.3995 30.2002 37.4195 29.4102 37.3895C29.0402 37.3795 28.9002 37.4595 28.9102 37.8695C28.9402 39.2095 28.9002 40.5595 28.9302 41.8995C28.9402 42.2995 28.8102 42.3795 28.4502 42.3595C27.9802 42.3295 27.5102 42.3395 27.0302 42.3595C26.7702 42.3695 26.6602 42.3195 26.6602 42.0195C26.6702 40.0195 26.6702 38.0095 26.6602 36.0095C26.6602 35.7695 26.7202 35.6895 26.9702 35.6895C29.0002 35.6995 31.0302 35.6795 33.0602 35.6995C34.1602 35.7095 34.6602 36.2495 34.6602 37.3595C34.6602 37.6695 34.6602 37.9895 34.6602 38.2995C34.6602 39.1895 34.3202 39.5995 33.4502 39.7895C33.3702 39.8195 33.2602 39.8295 33.0302 39.8695Z" fill="white"/>
<path d="M71.3694 39.0301C71.3694 38.0401 71.3794 37.0501 71.3694 36.0701C71.3694 35.8101 71.4094 35.6801 71.7194 35.6901C72.2594 35.7101 72.8094 35.7101 73.3494 35.6901C73.6194 35.6801 73.6894 35.7901 73.6794 36.0401C73.6594 36.6001 73.6894 37.1601 73.6694 37.7101C73.6594 37.9801 73.7494 38.0501 74.0094 38.0401C75.1394 38.0301 76.2694 38.0301 77.3994 38.0401C77.6794 38.0401 77.7394 37.9501 77.7294 37.6901C77.7094 37.1301 77.7294 36.5701 77.7194 36.0201C77.7194 35.7901 77.7594 35.6801 78.0194 35.6901C78.5794 35.7101 79.1394 35.7001 79.6894 35.6901C79.9094 35.6901 79.9894 35.7501 79.9894 35.9801C79.9794 38.0101 79.9794 40.0401 79.9894 42.0801C79.9894 42.3101 79.8994 42.3701 79.6794 42.3601C79.1394 42.3501 78.5894 42.3401 78.0494 42.3601C77.7894 42.3701 77.6994 42.2901 77.7094 42.0201C77.7294 41.3801 77.7094 40.7301 77.7194 40.0901C77.7294 39.8501 77.6594 39.7701 77.4094 39.7701C76.2694 39.7801 75.1194 39.7901 73.9794 39.7701C73.6894 39.7701 73.6594 39.8801 73.6594 40.1201C73.6694 40.7501 73.6494 41.3801 73.6694 42.0101C73.6794 42.2601 73.6194 42.3701 73.3394 42.3601C72.7994 42.3401 72.2494 42.3401 71.7094 42.3601C71.4094 42.3701 71.3594 42.2501 71.3594 41.9901C71.3794 41.0101 71.3694 40.0201 71.3694 39.0301Z" fill="white"/>
<path d="M66.3797 35.6992C67.1197 35.6992 67.8697 35.6992 68.6097 35.6992C69.0597 35.6992 69.4897 35.7992 69.8697 36.0592C70.3897 36.4192 70.4597 36.9592 70.4397 37.5492C70.4197 38.2392 70.4297 38.2392 69.7297 38.2392C69.3397 38.2392 68.9597 38.2192 68.5697 38.2492C68.2497 38.2692 68.1097 38.1692 68.1697 37.8492C68.2197 37.5592 68.1197 37.4592 67.8097 37.4592C66.8097 37.4792 65.8097 37.4792 64.7997 37.4592C64.4897 37.4492 64.4197 37.5592 64.4197 37.8492C64.4397 38.6392 64.4397 39.4192 64.4197 40.2092C64.4097 40.4992 64.4897 40.6092 64.7997 40.5992C65.7997 40.5792 66.7997 40.5792 67.8097 40.5992C68.1297 40.6092 68.2197 40.4892 68.1697 40.2092C68.0997 39.7992 68.2397 39.6592 68.6697 39.6992C69.1497 39.7392 69.6397 39.7192 70.1297 39.6992C70.3797 39.6892 70.4597 39.7792 70.4397 40.0192C70.4197 40.2292 70.4397 40.4492 70.4397 40.6592C70.4397 41.5792 69.9497 42.1492 69.0297 42.2992C68.2997 42.4192 67.5697 42.3592 66.8497 42.3492C65.7797 42.3392 64.6997 42.4392 63.6297 42.2992C62.6497 42.1692 62.1797 41.5992 62.1797 40.6192C62.1797 39.8492 62.1897 39.0692 62.1797 38.2992C62.1797 38.0492 62.2297 37.8292 62.3697 37.6192C62.7197 37.0992 63.0797 36.5792 63.3997 36.0392C63.5597 35.7692 63.7597 35.6792 64.0697 35.6892C64.8297 35.7092 65.5997 35.6992 66.3797 35.6992Z" fill="white"/>
<path d="M22.1495 42.3599C21.1095 42.3599 20.0595 42.3499 19.0195 42.3699C18.7295 42.3699 18.6195 42.3099 18.6295 41.9999C18.6495 40.5499 18.6495 39.1099 18.6295 37.6599C18.6295 37.3699 18.8095 37.1899 18.9095 36.9599C19.3995 35.8799 20.1995 35.5599 21.3695 35.6699C22.6595 35.7899 23.9695 35.7099 25.2695 35.6899C25.5695 35.6899 25.7195 35.7399 25.6895 36.0799C25.6595 36.4199 25.6595 36.7699 25.6895 37.1099C25.7095 37.4099 25.5895 37.4699 25.3195 37.4599C23.9895 37.4499 22.6595 37.4599 21.3295 37.4499C21.0195 37.4499 20.9195 37.5099 20.9195 37.8499C20.9195 38.1799 21.0295 38.2499 21.3395 38.2499C22.1695 38.2299 22.9995 38.2499 23.8295 38.2399C24.0695 38.2399 24.1595 38.2999 24.1395 38.5499C24.1195 38.8499 24.1195 39.1499 24.1395 39.4499C24.1595 39.7299 24.0495 39.7799 23.7895 39.7799C22.9495 39.7699 22.0995 39.7899 21.2595 39.7699C20.8895 39.7599 20.9295 39.9599 20.9295 40.1999C20.9195 40.4599 20.9295 40.6199 21.2795 40.6099C22.6195 40.5899 23.9695 40.6099 25.3195 40.5899C25.6295 40.5899 25.7195 40.6799 25.6995 40.9799C25.6795 41.3199 25.6695 41.6699 25.6995 42.0099C25.7295 42.3299 25.5895 42.3799 25.3095 42.3799C24.2395 42.3499 23.1995 42.3599 22.1495 42.3599Z" fill="white"/>
<path d="M45.1914 42.3599C45.5514 41.8199 45.8614 41.3499 46.1814 40.8799C47.2614 39.2699 48.3514 37.6599 49.4214 36.0399C49.5814 35.7999 49.7514 35.7299 50.0414 35.6899C51.0514 35.5199 51.6314 35.9499 52.1414 36.8199C53.2014 38.5999 54.3814 40.2999 55.5114 42.0399C55.5714 42.1299 55.6814 42.1999 55.6414 42.3699C54.8814 42.3699 54.1114 42.3699 53.3414 42.3699C53.1314 42.3699 53.0814 42.2099 53.0014 42.0899C52.2314 40.8999 51.4714 39.7099 50.7114 38.5199C50.6314 38.3899 50.5414 38.2599 50.4314 38.0899C49.8714 38.9499 49.3314 39.7899 48.7814 40.6299C48.4614 41.1199 48.1414 41.6099 47.8314 42.1099C47.7114 42.2999 47.5814 42.3799 47.3514 42.3799C46.6714 42.3499 45.9814 42.3599 45.1914 42.3599Z" fill="white"/>
<path d="M13.7302 39.7393C14.5302 38.4693 15.2902 37.2593 16.0302 36.0492C16.1902 35.7892 16.3702 35.6892 16.6802 35.6992C17.3402 35.7292 17.9902 35.7092 18.6402 35.7092C18.7402 35.8592 18.6102 35.9393 18.5602 36.0193C17.2602 38.0193 15.9402 40.0093 14.6402 42.0093C14.4602 42.2793 14.2702 42.3493 13.9502 42.3893C13.1402 42.4993 12.6802 42.1893 12.2702 41.4793C11.2002 39.6393 10.0202 37.8693 8.88018 36.0693C8.82018 35.9793 8.70018 35.8793 8.75018 35.7693C8.80018 35.6393 8.95018 35.7092 9.06018 35.7092C9.67018 35.6992 10.2902 35.7192 10.9002 35.6992C11.1502 35.6892 11.2802 35.7792 11.4102 35.9892C12.1702 37.2193 12.9302 38.4393 13.7302 39.7393Z" fill="white"/>
<path d="M62.5512 35.6995C62.1612 36.2895 61.8112 36.7895 61.4912 37.3095C61.3912 37.4595 61.2712 37.4595 61.1212 37.4595C60.6112 37.4595 60.0912 37.4895 59.5812 37.4495C59.1612 37.4195 59.0912 37.5795 59.1012 37.9495C59.1212 39.2795 59.1012 40.6095 59.1212 41.9395C59.1312 42.2795 59.0212 42.3795 58.6912 42.3595C58.2212 42.3295 57.7512 42.3295 57.2812 42.3595C56.9512 42.3795 56.8412 42.2995 56.8512 41.9395C56.8712 40.5695 56.8512 39.1895 56.8712 37.8195C56.8712 37.5195 56.7912 37.4295 56.4912 37.4395C55.7612 37.4595 55.0312 37.4395 54.3012 37.4495C54.0312 37.4595 53.9512 37.3695 53.9612 37.1095C53.9812 36.7695 53.9912 36.4195 53.9612 36.0795C53.9312 35.7495 54.0612 35.6695 54.3712 35.6795C56.5712 35.6895 58.7712 35.6895 60.9812 35.6895C61.4612 35.6995 61.9612 35.6995 62.5512 35.6995Z" fill="white"/>
<path d="M52.2297 42.3799C51.6197 43.2499 51.0497 44.0599 50.4497 44.8999C49.8497 44.0499 49.2797 43.2399 48.6797 42.3799C49.8897 42.3799 51.0197 42.3799 52.2297 42.3799Z" fill="white"/>
<path d="M15.6105 35.6001C14.4005 35.6001 13.2605 35.6001 12.0605 35.6001C12.6605 34.7401 13.2305 33.9301 13.8305 33.0801C14.4205 33.9201 14.9905 34.7201 15.6105 35.6001Z" fill="white"/>
</svg>
