<svg width="21" height="21" viewBox="0 0 21 21" fill="none" xmlns="http://www.w3.org/2000/svg">
<path d="M18.1514 0.948062C17.6684 0.948062 17.2764 1.34006 17.2764 1.82306V2.55237C15.3969 0.9135 12.9999 0 10.4453 0C4.68563 0 0 4.70269 0 10.4825C0 10.9655 0.392 11.3575 0.875 11.3575C1.358 11.3575 1.75 10.9655 1.75 10.4825C1.75 5.66737 5.65075 1.75 10.4453 1.75C12.5484 1.75 14.5241 2.49462 16.0816 3.83206H15.2797C14.7967 3.83206 14.4047 4.22406 14.4047 4.70706C14.4047 5.19006 14.7967 5.58206 15.2797 5.58206H18.1514C18.6344 5.58206 19.0264 5.19006 19.0264 4.70706V1.82306C19.0264 1.34006 18.6344 0.948062 18.1514 0.948062Z" fill="white"/>
<path d="M20.1246 9.64258C19.6416 9.64258 19.2496 10.0346 19.2496 10.5176C19.2496 15.3327 15.3488 19.2501 10.5542 19.2501C8.47568 19.2501 6.52093 18.5238 4.97218 17.2157H5.81262C6.29562 17.2157 6.68762 16.8237 6.68762 16.3407C6.68762 15.8577 6.29562 15.4657 5.81262 15.4657H2.94043C2.93255 15.4657 2.92555 15.4679 2.91812 15.4679C2.88487 15.4688 2.85205 15.4731 2.8188 15.478C2.7943 15.4815 2.7698 15.4836 2.74574 15.4893C2.71687 15.4959 2.68843 15.5064 2.65999 15.516C2.63374 15.5252 2.60705 15.5331 2.58168 15.5445C2.55762 15.5554 2.53487 15.5694 2.51168 15.5825C2.48412 15.5983 2.45699 15.6136 2.43118 15.632C2.42462 15.6368 2.41718 15.6394 2.41062 15.6446C2.39574 15.656 2.38437 15.67 2.37037 15.6823C2.34718 15.7024 2.32399 15.7225 2.30299 15.7453C2.2833 15.7663 2.26624 15.7881 2.24918 15.8105C2.23212 15.8328 2.21549 15.8551 2.20018 15.8787C2.18487 15.9032 2.17174 15.9286 2.15905 15.954C2.14637 15.9789 2.13455 16.0043 2.12449 16.0305C2.11443 16.0576 2.10655 16.0848 2.09912 16.1128C2.09212 16.1395 2.08468 16.1661 2.0803 16.1937C2.07505 16.2248 2.07287 16.2558 2.07068 16.2873C2.06937 16.3053 2.06543 16.3228 2.06543 16.3411V19.2251C2.06543 19.7081 2.45743 20.1001 2.94043 20.1001C3.42343 20.1001 3.81543 19.7081 3.81543 19.2251V18.5295C5.68049 20.1172 8.04168 21.0001 10.5542 21.0001C16.3139 21.0001 20.9996 16.2974 20.9996 10.5176C20.9996 10.0346 20.6076 9.64258 20.1246 9.64258Z" fill="white"/>
</svg>
