<svg width="33" height="45" viewBox="0 0 33 45" fill="none" xmlns="http://www.w3.org/2000/svg">
<path d="M14.6951 33.6438L7.44153 31.1353L5.84113 31.2983L2.38237 41.2357C2.27216 41.5522 2.52862 41.8759 2.86199 41.841L7.7103 41.3333C7.84574 41.3191 7.98039 41.366 8.07777 41.4612L11.5631 44.8695C11.8027 45.1038 12.2047 45.0093 12.3148 44.6928L15.7962 34.6904L14.6951 33.6438Z" fill="#98DB7C"/>
<path d="M15.7958 34.6903L16.4993 32.6693L6.54219 29.2832L5.84082 31.2983C8.66826 33.3158 12.0918 34.5508 15.7958 34.6903Z" fill="#82D361"/>
<path d="M18.304 33.6438L25.5577 31.1353L27.1581 31.2983L30.6169 41.2357C30.727 41.5522 30.4707 41.8759 30.1373 41.841L25.289 41.3333C25.1535 41.3191 25.0189 41.366 24.9216 41.4612L21.4363 44.8695C21.1967 45.1038 20.7947 45.0093 20.6846 44.6928L17.2031 34.6904L18.304 33.6438Z" fill="#98DB7C"/>
<path d="M17.2035 34.6903L16.5 32.6693L26.4571 29.2832L27.1585 31.2983C24.3311 33.3158 20.9075 34.5508 17.2035 34.6903Z" fill="#82D361"/>
<path d="M16.5005 31.5912C0.186264 31.5912 0.172729 15.7841 0.186264 15.5114C0.615082 6.87252 7.75523 0 16.5005 0C25.24 0 32.3765 6.86338 32.8139 15.4941C32.8281 15.7725 32.8139 31.5912 16.5005 31.5912Z" fill="#E0E0E0"/>
<path d="M16.4997 31.0226C7.75439 31.0226 0.614512 24.1501 0.185606 15.5112C0.17207 15.784 0.165039 16.0584 0.165039 16.3345C0.165039 25.3559 7.47833 32.6692 16.4997 32.6692C25.521 32.6692 32.8343 25.3559 32.8343 16.3345C32.8343 16.0584 32.8273 15.784 32.8138 15.5112C32.3849 24.1501 25.245 31.0226 16.4997 31.0226Z" fill="#CECECE"/>
<path fill-rule="evenodd" clip-rule="evenodd" d="M29.3432 15.5571C29.3586 15.8145 29.3673 16.0737 29.3673 16.335C29.3673 23.4419 23.606 29.2032 16.4991 29.2032C9.39218 29.2032 3.63086 23.4419 3.63086 16.335C3.63086 16.0638 3.64024 15.7947 3.65685 15.5276C3.65704 15.5202 3.65726 15.5147 3.65748 15.5112C4.08208 8.78791 9.66946 3.46631 16.4998 3.46631C23.3301 3.46631 28.9175 8.78791 29.3421 15.5112C29.3426 15.5183 29.343 15.5338 29.3432 15.5571Z" fill="#898989"/>
</svg>
