<svg width="33" height="45" viewBox="0 0 33 45" fill="none" xmlns="http://www.w3.org/2000/svg">
<path d="M7.62425 31.2114L5.84025 31.2984L2.3814 41.2359C2.27118 41.5524 2.52765 41.8761 2.86102 41.8411L7.70933 41.3334C7.84477 41.3193 7.97942 41.3661 8.0768 41.4613L11.5621 44.8696C11.8017 45.1039 12.2037 45.0095 12.3138 44.693L15.7953 34.6906L14.7687 33.6942L7.62425 31.2114Z" fill="#FF4755"/>
<path d="M15.7958 34.6898L16.4993 32.6688L6.54219 29.2827L5.84082 31.2978C8.66826 33.3153 12.0918 34.5503 15.7958 34.6898Z" fill="#FC2B3A"/>
<path d="M25.374 31.2114L27.158 31.2984L30.6169 41.2359C30.7271 41.5524 30.4706 41.8761 30.1373 41.8411L25.289 41.3334C25.1535 41.3193 25.0189 41.3661 24.9216 41.4613L21.4363 44.8696C21.1967 45.1039 20.7947 45.0095 20.6846 44.693L17.2031 34.6906L18.2297 33.6942L25.374 31.2114Z" fill="#FF4755"/>
<path d="M17.2035 34.6898L16.5 32.6688L26.4571 29.2827L27.1585 31.2978C24.3311 33.3153 20.9075 34.5503 17.2035 34.6898Z" fill="#FC2B3A"/>
<path d="M16.5006 31.6508C0.165918 31.6508 0.172775 15.784 0.18631 15.5113C0.615128 6.87252 7.75527 0 16.5006 0C25.2459 0 32.386 6.87252 32.8148 15.5114C32.8284 15.7841 32.8352 31.6508 16.5006 31.6508Z" fill="#FFE27A"/>
<path d="M16.4997 31.0226C7.75439 31.0226 0.614512 24.1501 0.185606 15.5112C0.17207 15.784 0.165039 16.0584 0.165039 16.3345C0.165039 25.3559 7.47833 32.6692 16.4997 32.6692C25.521 32.6692 32.8343 25.3559 32.8343 16.3345C32.8343 16.0584 32.8273 15.784 32.8138 15.5112C32.3849 24.1501 25.245 31.0226 16.4997 31.0226Z" fill="#F9CF58"/>
<path d="M16.4997 28.1364C3.65738 28.1364 3.64016 15.5081 3.65738 15.2358C4.08198 8.51252 9.66937 3.19092 16.4997 3.19092C23.33 3.19092 28.9174 8.51252 29.342 15.2358C29.3592 15.508 29.342 28.1364 16.4997 28.1364Z" fill="#FFBA57"/>
<path d="M16.5001 27.5562C9.66983 27.5562 4.08342 22.2344 3.65882 15.5112C3.64159 15.7835 3.63184 16.0579 3.63184 16.3345C3.63184 23.4414 9.39315 29.2027 16.5001 29.2027C23.607 29.2027 29.3683 23.4414 29.3683 16.3345C29.3683 16.0578 29.3586 15.7835 29.3413 15.5112C28.9167 22.2344 23.3303 27.5562 16.5001 27.5562Z" fill="#FFAC3E"/>
</svg>
